<svg width="1280" height="720" xmlns="http://www.w3.org/2000/svg" xmlns:xlink="http://www.w3.org/1999/xlink" overflow="hidden"><defs><clipPath id="clip0"><rect x="0" y="0" width="1280" height="720"/></clipPath></defs><g clip-path="url(#clip0)"><rect x="0" y="0" width="1280" height="720" fill="#FFFFFF"/><rect x="46.5001" y="387.5" width="66" height="96" stroke="#2F528F" stroke-width="2.66667" stroke-miterlimit="8" fill="#8FAADC"/><text font-family="Calibri,Calibri_MSFontService,sans-serif" font-weight="400" font-size="24" transform="translate(71.206 443)">G</text><rect x="112.5" y="387.5" width="188" height="96" stroke="#2F528F" stroke-width="2.66667" stroke-miterlimit="8" fill="none"/><text font-family="Arial,Arial_MSFontService,sans-serif" font-weight="400" font-size="16" transform="translate(121.317 421)">•<tspan font-family="Calibri,Calibri_MSFontService,sans-serif" font-weight="700" font-size="16" x="30" y="0">Item pools (P1, P2)</tspan><tspan font-size="16" x="0" y="19">•</tspan><tspan font-family="Calibri,Calibri_MSFontService,sans-serif" font-weight="700" font-size="16" x="30" y="19">Constraints (P1, P2)</tspan><tspan font-size="16" x="0" y="38">•</tspan><tspan font-family="Calibri,Calibri_MSFontService,sans-serif" font-weight="700" font-size="16" x="30" y="38">Cut scores</tspan></text><rect x="349.5" y="290.5" width="66" height="96" stroke="#2F528F" stroke-width="1.33333" stroke-miterlimit="8" fill="none"/><rect x="349.5" y="386.5" width="66" height="96" stroke="#2F528F" stroke-width="2.66667" stroke-miterlimit="8" fill="#8FAADC"/><text font-family="Calibri,Calibri_MSFontService,sans-serif" font-weight="400" font-size="24" transform="translate(369.495 442)">P1</text><rect x="349.5" y="482.5" width="66" height="96" stroke="#2F528F" stroke-width="1.33333" stroke-miterlimit="8" fill="none"/><rect x="349.5" y="194.5" width="66" height="96" stroke="#2F528F" stroke-width="1.33333" stroke-miterlimit="8" fill="none"/><rect x="46.5001" y="483.5" width="66" height="96" stroke="#2F528F" stroke-width="2.66667" stroke-miterlimit="8" fill="#2F5597"/><text fill="#FFFFFF" font-family="Calibri,Calibri_MSFontService,sans-serif" font-weight="400" font-size="24" transform="translate(61.456 539)">G<tspan font-size="24" x="15.1667" y="0">-</tspan><tspan font-size="24" x="22.5" y="0">1</tspan></text><rect x="112.5" y="483.5" width="188" height="96" stroke="#2F528F" stroke-width="2.66667" stroke-miterlimit="8" fill="none"/><text font-family="Arial,Arial_MSFontService,sans-serif" font-weight="400" font-size="16" transform="translate(121.317 518)">•<tspan font-family="Calibri,Calibri_MSFontService,sans-serif" font-weight="700" font-size="16" x="30" y="0">Item pools (P1, P2)</tspan><tspan font-size="16" x="0" y="19">•</tspan><tspan font-family="Calibri,Calibri_MSFontService,sans-serif" font-weight="700" font-size="16" x="30" y="19">Constraints (P1, P2)</tspan><tspan font-size="16" x="0" y="38">•</tspan><tspan font-family="Calibri,Calibri_MSFontService,sans-serif" font-weight="700" font-size="16" x="30" y="38">Cut scores</tspan></text><rect x="46.5001" y="291.5" width="66" height="96" stroke="#2F528F" stroke-width="2.66667" stroke-miterlimit="8" fill="#B4C7E7"/><text font-family="Calibri,Calibri_MSFontService,sans-serif" font-weight="400" font-size="24" transform="translate(59.1227 347)">G+1</text><rect x="112.5" y="291.5" width="188" height="96" stroke="#2F528F" stroke-width="2.66667" stroke-miterlimit="8" fill="none"/><text font-family="Arial,Arial_MSFontService,sans-serif" font-weight="400" font-size="16" transform="translate(121.317 326)">•<tspan font-family="Calibri,Calibri_MSFontService,sans-serif" font-weight="700" font-size="16" x="30" y="0">Item pools (P1, P2)</tspan><tspan font-size="16" x="0" y="19">•</tspan><tspan font-family="Calibri,Calibri_MSFontService,sans-serif" font-weight="700" font-size="16" x="30" y="19">Constraints (P1, P2)</tspan><tspan font-size="16" x="0" y="38">•</tspan><tspan font-family="Calibri,Calibri_MSFontService,sans-serif" font-weight="700" font-size="16" x="30" y="38">Cut scores</tspan></text><rect x="46.5001" y="195.5" width="66" height="96" stroke="#2F528F" stroke-width="2.66667" stroke-miterlimit="8" fill="#DAE3F3"/><text font-family="Calibri,Calibri_MSFontService,sans-serif" font-weight="400" font-size="24" transform="translate(59.1226 251)">G+2</text><rect x="112.5" y="195.5" width="188" height="96" stroke="#2F528F" stroke-width="2.66667" stroke-miterlimit="8" fill="none"/><text font-family="Arial,Arial_MSFontService,sans-serif" font-weight="400" font-size="16" transform="translate(121.317 230)">•<tspan font-family="Calibri,Calibri_MSFontService,sans-serif" font-weight="700" font-size="16" x="30" y="0">Item pools (P1, P2)</tspan><tspan font-size="16" x="0" y="19">•</tspan><tspan font-family="Calibri,Calibri_MSFontService,sans-serif" font-weight="700" font-size="16" x="30" y="19">Constraints (P1, P2)</tspan><tspan font-size="16" x="0" y="38">•</tspan><tspan font-family="Calibri,Calibri_MSFontService,sans-serif" font-weight="700" font-size="16" x="30" y="38">Cut scores</tspan></text><rect x="458.5" y="290.5" width="66" height="96" stroke="#2F528F" stroke-width="2.66667" stroke-miterlimit="8" fill="#B4C7E7"/><text font-family="Calibri,Calibri_MSFontService,sans-serif" font-weight="400" font-size="24" transform="translate(478.946 346)">P2</text><rect x="458.5" y="386.5" width="66" height="96" stroke="#2F528F" stroke-width="2.66667" stroke-miterlimit="8" fill="#8FAADC"/><text font-family="Calibri,Calibri_MSFontService,sans-serif" font-weight="400" font-size="24" transform="translate(478.946 442)">P2</text><rect x="458.5" y="482.5" width="66" height="96" stroke="#2F528F" stroke-width="2.66667" stroke-miterlimit="8" fill="#2F5597"/><text fill="#FFFFFF" font-family="Calibri,Calibri_MSFontService,sans-serif" font-weight="400" font-size="24" transform="translate(478.946 538)">P2</text><rect x="458.5" y="194.5" width="66" height="96" stroke="#2F528F" stroke-width="1.33333" stroke-miterlimit="8" fill="none"/><path d="M415.5 433.833 416.833 433.833 416.833 435.167 415.5 435.167ZM418.167 433.833 419.5 433.833 419.5 435.167 418.167 435.167ZM420.833 433.833 422.167 433.833 422.167 435.167 420.833 435.167ZM423.5 433.833 424.833 433.833 424.833 435.167 423.5 435.167ZM426.167 433.833 427.5 433.833 427.5 435.167 426.167 435.167ZM428.833 433.833 430.167 433.833 430.167 435.167 428.833 435.167ZM431.5 433.833 432.833 433.833 432.833 435.167 431.5 435.167ZM434.167 433.833 435.5 433.833 435.5 435.167 434.167 435.167ZM436.833 433.833 438.167 433.833 438.167 435.167 436.833 435.167ZM439.5 433.833 440.833 433.833 440.833 435.167 439.5 435.167ZM442.167 433.833 443.5 433.833 443.5 435.167 442.167 435.167ZM444.833 433.833 446.167 433.833 446.167 435.167 444.833 435.167ZM447.5 433.833 448.833 433.833 448.833 435.167 447.5 435.167ZM450.167 433.833 451.5 433.833 451.5 435.167 450.167 435.167ZM451.095 430.5 459.095 434.5 451.095 438.5Z" fill="#4472C4"/><path d="M0.606994-0.275685 1.15836 0.938303-0.0556237 1.48967-0.606994 0.275685ZM1.70974 2.15229 2.26111 3.36628 1.04712 3.91765 0.495747 2.70366ZM2.81248 4.58027 3.36385 5.79426 2.14986 6.34563 1.59849 5.13164ZM3.91522 7.00825 4.46659 8.22223 3.2526 8.7736 2.70123 7.55962ZM5.01796 9.43622 5.56933 10.6502 4.35534 11.2016 3.80397 9.98759ZM6.1207 11.8642 6.67207 13.0782 5.45808 13.6296 4.90671 12.4156ZM7.22344 14.2922 7.77481 15.5062 6.56082 16.0575 6.00945 14.8435ZM8.32618 16.7202 8.87755 17.9341 7.66357 18.4855 7.11219 17.2715ZM9.42892 19.1481 9.98029 20.3621 8.76631 20.9135 8.21494 19.6995ZM10.5317 21.5761 11.083 22.7901 9.86905 23.3415 9.31768 22.1275ZM11.6344 24.0041 12.1858 25.2181 10.9718 25.7694 10.4204 24.5555ZM12.7371 26.4321 13.2885 27.646 12.0745 28.1974 11.5232 26.9834ZM13.8399 28.86 14.3913 30.074 13.1773 30.6254 12.6259 29.4114ZM14.9426 31.288 15.494 32.502 14.28 33.0534 13.7286 31.8394ZM16.0454 33.716 16.5967 34.93 15.3828 35.4814 14.8314 34.2674ZM17.1481 36.144 17.6995 37.358 16.4855 37.9093 15.9341 36.6953ZM18.2509 38.572 18.8022 39.7859 17.5882 40.3373 17.0369 39.1233ZM19.3536 40.9999 19.905 42.2139 18.691 42.7653 18.1396 41.5513ZM20.4563 43.4279 21.0077 44.6419 19.7937 45.1933 19.2423 43.9793ZM21.5591 45.8559 22.1105 47.0699 20.8965 47.6213 20.3451 46.4073ZM22.6618 48.2839 23.2132 49.4979 21.9992 50.0492 21.4478 48.8352ZM23.7646 50.7118 24.3159 51.9258 23.1019 52.4772 22.5506 51.2632ZM24.8673 53.1398 25.4187 54.3538 24.2047 54.9052 23.6533 53.6912ZM25.97 55.5678 26.5214 56.7818 25.3074 57.3332 24.7561 56.1192ZM27.0728 57.9958 27.6242 59.2098 26.4102 59.7611 25.8588 58.5471ZM28.1755 60.4238 28.7269 61.6378 27.5129 62.1891 26.9615 60.9751ZM29.2783 62.8517 29.8296 64.0657 28.6157 64.6171 28.0643 63.4031ZM30.381 65.2797 30.9324 66.4937 29.7184 67.0451 29.167 65.8311ZM31.4838 67.7077 32.0351 68.9217 30.8211 69.4731 30.2698 68.2591ZM32.5865 70.1357 33.1379 71.3497 31.9239 71.901 31.3725 70.687ZM33.6892 72.5637 34.2406 73.7776 33.0266 74.329 32.4753 73.115ZM34.792 74.9916 35.3434 76.2056 34.1294 76.757 33.578 75.543ZM35.8947 77.4196 36.4461 78.6336 35.2321 79.185 34.6807 77.971ZM36.9975 79.8476 37.5488 81.0616 36.3348 81.6129 35.7835 80.3989ZM38.1002 82.2756 38.6516 83.4895 37.4376 84.0409 36.8862 82.8269ZM39.2029 84.7035 39.7543 85.9175 38.5403 86.4689 37.989 85.2549ZM40.3057 87.1315 40.857 88.3455 39.6431 88.8969 39.0917 87.6829ZM41.4084 89.5595 41.4449 89.6398 40.2309 90.1912 40.1944 90.1108ZM43.9285 87.0474 43.5947 95.9854 36.6446 90.3556Z" fill="#4472C4" transform="matrix(1 0 0 -1 415.5 434.485)"/><path d="M416.107 434.224 416.658 435.438 415.444 435.99 414.893 434.776ZM417.21 436.652 417.761 437.866 416.547 438.418 415.996 437.204ZM418.313 439.08 418.864 440.294 417.65 440.846 417.099 439.632ZM419.415 441.508 419.967 442.722 418.753 443.274 418.201 442.06ZM420.518 443.936 421.069 445.15 419.855 445.702 419.304 444.488ZM421.621 446.364 422.172 447.578 420.958 448.13 420.407 446.916ZM422.724 448.792 423.275 450.006 422.061 450.558 421.51 449.344ZM423.826 451.22 424.378 452.434 423.164 452.986 422.612 451.772ZM424.929 453.648 425.48 454.862 424.266 455.414 423.715 454.2ZM426.032 456.076 426.583 457.29 425.369 457.842 424.818 456.628ZM427.134 458.504 427.686 459.718 426.472 460.27 425.92 459.056ZM428.237 460.932 428.789 462.146 427.575 462.697 427.023 461.483ZM429.34 463.36 429.891 464.574 428.677 465.125 428.126 463.911ZM430.443 465.788 430.994 467.002 429.78 467.553 429.229 466.339ZM431.545 468.216 432.097 469.43 430.883 469.981 430.331 468.767ZM432.648 470.644 433.2 471.858 431.986 472.409 431.434 471.195ZM433.751 473.072 434.302 474.286 433.088 474.837 432.537 473.623ZM434.854 475.5 435.405 476.714 434.191 477.265 433.64 476.051ZM435.956 477.928 436.508 479.142 435.294 479.693 434.742 478.479ZM437.059 480.356 437.611 481.57 436.397 482.121 435.845 480.907ZM438.162 482.784 438.713 483.998 437.499 484.549 436.948 483.335ZM439.265 485.212 439.816 486.426 438.602 486.977 438.051 485.763ZM440.367 487.64 440.919 488.854 439.705 489.405 439.153 488.191ZM441.47 490.068 442.021 491.282 440.807 491.833 440.256 490.619ZM442.573 492.496 443.124 493.71 441.91 494.261 441.359 493.047ZM443.676 494.924 444.227 496.138 443.013 496.689 442.462 495.475ZM444.778 497.352 445.33 498.566 444.116 499.117 443.564 497.903ZM445.881 499.78 446.432 500.994 445.218 501.545 444.667 500.331ZM446.984 502.208 447.535 503.422 446.321 503.973 445.77 502.759ZM448.087 504.636 448.638 505.85 447.424 506.401 446.873 505.187ZM449.189 507.064 449.741 508.278 448.527 508.829 447.975 507.615ZM450.292 509.492 450.843 510.706 449.629 511.257 449.078 510.043ZM451.395 511.92 451.946 513.134 450.732 513.685 450.181 512.471ZM452.498 514.348 453.049 515.562 451.835 516.113 451.284 514.899ZM453.6 516.776 454.152 517.99 452.938 518.541 452.386 517.327ZM454.703 519.204 455.254 520.418 454.04 520.969 453.489 519.755ZM455.806 521.632 456.357 522.846 455.143 523.397 454.592 522.183ZM456.908 524.06 456.945 524.14 455.731 524.691 455.694 524.611ZM459.429 521.547 459.095 530.485 452.145 524.856Z" fill="#4472C4"/><rect x="652.5" y="291.5" width="66" height="96" stroke="#2F528F" stroke-width="2.66667" stroke-miterlimit="8" fill="#B4C7E7"/><text font-family="Calibri,Calibri_MSFontService,sans-serif" font-weight="400" font-size="24" transform="translate(672.45 347)">P1</text><rect x="652.5" y="387.5" width="66" height="96" stroke="#2F528F" stroke-width="2.66667" stroke-miterlimit="8" fill="#8FAADC"/><text font-family="Calibri,Calibri_MSFontService,sans-serif" font-weight="400" font-size="24" transform="translate(672.45 443)">P1</text><rect x="652.5" y="483.5" width="66" height="96" stroke="#2F528F" stroke-width="1.33333" stroke-miterlimit="8" fill="none"/><rect x="652.5" y="195.5" width="66" height="96" stroke="#2F528F" stroke-width="1.33333" stroke-miterlimit="8" fill="none"/><rect x="761.5" y="291.5" width="66" height="96" stroke="#2F528F" stroke-width="2.66667" stroke-miterlimit="8" fill="#B4C7E7"/><text font-family="Calibri,Calibri_MSFontService,sans-serif" font-weight="400" font-size="24" transform="translate(781.901 347)">P2</text><rect x="761.5" y="387.5" width="66" height="96" stroke="#2F528F" stroke-width="2.66667" stroke-miterlimit="8" fill="#8FAADC"/><text font-family="Calibri,Calibri_MSFontService,sans-serif" font-weight="400" font-size="24" transform="translate(781.901 443)">P2</text><rect x="761.5" y="483.5" width="66" height="96" stroke="#2F528F" stroke-width="2.66667" stroke-miterlimit="8" fill="#2F5597"/><text fill="#FFFFFF" font-family="Calibri,Calibri_MSFontService,sans-serif" font-weight="400" font-size="24" transform="translate(781.901 539)">P2</text><rect x="761.5" y="195.5" width="66" height="96" stroke="#2F528F" stroke-width="2.66667" stroke-miterlimit="8" fill="#DAE3F3"/><text font-family="Calibri,Calibri_MSFontService,sans-serif" font-weight="400" font-size="24" transform="translate(781.901 251)">P2</text><rect x="955.5" y="290.5" width="66" height="96" stroke="#2F528F" stroke-width="2.66667" stroke-miterlimit="8" fill="#B4C7E7"/><text font-family="Calibri,Calibri_MSFontService,sans-serif" font-weight="400" font-size="24" transform="translate(975.406 346)">P1</text><rect x="955.5" y="386.5" width="66" height="96" stroke="#2F528F" stroke-width="2.66667" stroke-miterlimit="8" fill="#8FAADC"/><text font-family="Calibri,Calibri_MSFontService,sans-serif" font-weight="400" font-size="24" transform="translate(975.406 442)">P1</text><rect x="955.5" y="482.5" width="66" height="96" stroke="#2F528F" stroke-width="1.33333" stroke-miterlimit="8" fill="none"/><rect x="955.5" y="194.5" width="66" height="96" stroke="#2F528F" stroke-width="2.66667" stroke-miterlimit="8" fill="#DAE3F3"/><text font-family="Calibri,Calibri_MSFontService,sans-serif" font-weight="400" font-size="24" transform="translate(975.406 250)">P1</text><rect x="1064.5" y="290.5" width="66" height="96" stroke="#2F528F" stroke-width="2.66667" stroke-miterlimit="8" fill="#B4C7E7"/><text font-family="Calibri,Calibri_MSFontService,sans-serif" font-weight="400" font-size="24" transform="translate(1084.86 346)">P2</text><rect x="1064.5" y="386.5" width="66" height="96" stroke="#2F528F" stroke-width="2.66667" stroke-miterlimit="8" fill="#8FAADC"/><text font-family="Calibri,Calibri_MSFontService,sans-serif" font-weight="400" font-size="24" transform="translate(1084.86 442)">P2</text><rect x="1064.5" y="482.5" width="66" height="96" stroke="#2F528F" stroke-width="2.66667" stroke-miterlimit="8" fill="#2F5597"/><text fill="#FFFFFF" font-family="Calibri,Calibri_MSFontService,sans-serif" font-weight="400" font-size="24" transform="translate(1084.86 538)">P2</text><rect x="1064.5" y="194.5" width="66" height="96" stroke="#2F528F" stroke-width="2.66667" stroke-miterlimit="8" fill="#DAE3F3"/><text font-family="Calibri,Calibri_MSFontService,sans-serif" font-weight="400" font-size="24" transform="translate(1084.86 250)">P2</text><path d="M524.507 337.833 525.84 337.847 525.827 339.18 524.493 339.167ZM527.173 337.861 528.507 337.874 528.493 339.207 527.16 339.194ZM529.84 337.888 531.173 337.901 531.16 339.234 529.826 339.221ZM532.506 337.915 533.84 337.928 533.826 339.262 532.493 339.248ZM535.173 337.942 536.506 337.955 536.493 339.289 535.159 339.275ZM537.839 337.969 539.173 337.982 539.159 339.316 537.826 339.302ZM540.506 337.996 541.839 338.01 541.826 339.343 540.492 339.329ZM543.173 338.023 544.506 338.037 544.492 339.37 543.159 339.356ZM545.839 338.05 547.172 338.064 547.159 339.397 545.826 339.383ZM548.506 338.077 549.839 338.091 549.825 339.424 548.492 339.411ZM551.172 338.104 552.505 338.118 552.492 339.451 551.159 339.438ZM553.839 338.132 555.172 338.145 555.158 339.478 553.825 339.465ZM556.505 338.159 557.838 338.172 557.825 339.505 556.492 339.492ZM559.172 338.186 560.505 338.199 560.491 339.533 559.158 339.519ZM561.838 338.213 563.172 338.226 563.158 339.56 561.825 339.546ZM564.505 338.24 565.838 338.253 565.824 339.587 564.491 339.573ZM567.171 338.267 568.505 338.281 568.491 339.614 567.158 339.6ZM569.838 338.294 571.171 338.308 571.158 339.641 569.824 339.627ZM572.504 338.321 573.838 338.335 573.824 339.668 572.491 339.654ZM575.171 338.348 576.504 338.362 576.491 339.695 575.157 339.682ZM577.837 338.375 579.171 338.389 579.157 339.722 577.824 339.709ZM580.504 338.402 581.837 338.416 581.824 339.749 580.49 339.736ZM583.17 338.43 584.504 338.443 584.49 339.776 583.157 339.763ZM585.837 338.457 587.17 338.47 587.157 339.803 585.823 339.79ZM588.504 338.484 589.837 338.497 589.823 339.831 588.49 339.817ZM591.17 338.511 592.503 338.524 592.49 339.858 591.156 339.844ZM593.837 338.538 595.17 338.551 595.156 339.885 593.823 339.871ZM596.503 338.565 597.836 338.579 597.823 339.912 596.49 339.898ZM599.17 338.592 600.503 338.606 600.489 339.939 599.156 339.925ZM601.836 338.619 603.169 338.633 603.156 339.966 601.823 339.952ZM604.503 338.646 605.836 338.66 605.822 339.993 604.489 339.98ZM607.169 338.673 608.503 338.687 608.489 340.02 607.156 340.007ZM609.836 338.701 611.169 338.714 611.155 340.047 609.822 340.034ZM612.502 338.728 613.836 338.741 613.822 340.074 612.489 340.061ZM615.169 338.755 616.502 338.768 616.489 340.102 615.155 340.088ZM617.835 338.782 619.169 338.795 619.155 340.129 617.822 340.115ZM620.502 338.809 621.835 338.822 621.822 340.156 620.488 340.142ZM623.168 338.836 624.502 338.85 624.488 340.183 623.155 340.169ZM625.835 338.863 627.168 338.877 627.155 340.21 625.821 340.196ZM628.501 338.89 629.835 338.904 629.821 340.237 628.488 340.223ZM631.168 338.917 632.501 338.931 632.488 340.264 631.154 340.251ZM633.835 338.944 635.168 338.958 635.154 340.291 633.821 340.278ZM636.501 338.971 637.834 338.985 637.821 340.318 636.487 340.305ZM639.168 338.999 640.501 339.012 640.487 340.345 639.154 340.332ZM641.834 339.026 643.167 339.039 643.154 340.372 641.821 340.359ZM644.501 339.053 645.489 339.063 645.475 340.396 644.487 340.386ZM644.19 335.716 652.149 339.797 644.108 343.716Z" fill="#4472C4"/><path d="M524.904 337.97 525.965 338.778 525.156 339.839 524.096 339.03ZM527.025 339.586 528.086 340.394 527.277 341.455 526.217 340.647ZM529.146 341.203 530.206 342.011 529.398 343.071 528.338 342.263ZM531.267 342.819 532.327 343.627 531.519 344.688 530.459 343.879ZM533.388 344.435 534.448 345.244 533.64 346.304 532.58 345.496ZM535.509 346.052 536.569 346.86 535.761 347.92 534.701 347.112ZM537.63 347.668 538.69 348.476 537.882 349.537 536.822 348.729ZM539.751 349.285 540.811 350.093 540.003 351.153 538.943 350.345ZM541.872 350.901 542.932 351.709 542.124 352.77 541.063 351.961ZM543.993 352.517 545.053 353.326 544.245 354.386 543.184 353.578ZM546.114 354.134 547.174 354.942 546.366 356.002 545.305 355.194ZM548.234 355.75 549.295 356.558 548.487 357.619 547.426 356.811ZM550.355 357.367 551.416 358.175 550.608 359.235 549.547 358.427ZM552.476 358.983 553.537 359.791 552.729 360.852 551.668 360.043ZM554.597 360.599 555.658 361.408 554.85 362.468 553.789 361.66ZM556.718 362.216 557.779 363.024 556.971 364.084 555.91 363.276ZM558.839 363.832 559.9 364.64 559.091 365.701 558.031 364.893ZM560.96 365.449 562.021 366.257 561.212 367.317 560.152 366.509ZM563.081 367.065 564.142 367.873 563.333 368.934 562.273 368.125ZM565.202 368.681 566.262 369.49 565.454 370.55 564.394 369.742ZM567.323 370.298 568.383 371.106 567.575 372.166 566.515 371.358ZM569.444 371.914 570.504 372.722 569.696 373.783 568.636 372.975ZM571.565 373.53 572.625 374.339 571.817 375.399 570.757 374.591ZM573.686 375.147 574.746 375.955 573.938 377.016 572.878 376.207ZM575.807 376.763 576.867 377.571 576.059 378.632 574.998 377.824ZM577.928 378.38 578.988 379.188 578.18 380.248 577.119 379.44ZM580.049 379.996 581.109 380.804 580.301 381.865 579.24 381.057ZM582.169 381.612 583.23 382.421 582.422 383.481 581.361 382.673ZM584.29 383.229 585.351 384.037 584.543 385.098 583.482 384.289ZM586.411 384.845 587.472 385.653 586.664 386.714 585.603 385.906ZM588.532 386.462 589.593 387.27 588.785 388.33 587.724 387.522ZM590.653 388.078 591.714 388.886 590.906 389.947 589.845 389.138ZM592.774 389.694 593.835 390.503 593.026 391.563 591.966 390.755ZM594.895 391.311 595.956 392.119 595.147 393.179 594.087 392.371ZM597.016 392.927 598.077 393.735 597.268 394.796 596.208 393.988ZM599.137 394.544 600.198 395.352 599.389 396.412 598.329 395.604ZM601.258 396.16 602.318 396.968 601.51 398.029 600.45 397.22ZM603.379 397.776 604.439 398.585 603.631 399.645 602.571 398.837ZM605.5 399.393 606.56 400.201 605.752 401.261 604.692 400.453ZM607.621 401.009 608.681 401.817 607.873 402.878 606.813 402.07ZM609.742 402.626 610.802 403.434 609.994 404.494 608.934 403.686ZM611.863 404.242 612.923 405.05 612.115 406.111 611.054 405.302ZM613.984 405.858 615.044 406.667 614.236 407.727 613.175 406.919ZM616.105 407.475 617.165 408.283 616.357 409.343 615.296 408.535ZM618.225 409.091 619.286 409.899 618.478 410.96 617.417 410.152ZM620.346 410.708 621.407 411.516 620.599 412.576 619.538 411.768ZM622.467 412.324 623.528 413.132 622.72 414.193 621.659 413.384ZM624.588 413.94 625.649 414.749 624.841 415.809 623.78 415.001ZM626.709 415.557 627.77 416.365 626.961 417.425 625.901 416.617ZM628.83 417.173 629.891 417.981 629.082 419.042 628.022 418.234ZM630.951 418.789 632.012 419.598 631.203 420.658 630.143 419.85ZM633.072 420.406 634.133 421.214 633.324 422.275 632.264 421.466ZM635.193 422.022 636.253 422.83 635.445 423.891 634.385 423.083ZM637.314 423.639 638.374 424.447 637.566 425.507 636.506 424.699ZM639.435 425.255 640.495 426.063 639.687 427.124 638.627 426.316ZM641.556 426.871 642.616 427.68 641.808 428.74 640.748 427.932ZM643.677 428.488 644.737 429.296 643.929 430.357 642.869 429.548ZM645.798 430.104 646.858 430.912 646.05 431.973 644.99 431.165ZM648.21 427.752 652.149 435.783 643.361 434.115Z" fill="#4472C4"/><path d="M524.507 433.833 525.84 433.847 525.827 435.18 524.493 435.167ZM527.173 433.861 528.507 433.874 528.493 435.207 527.16 435.194ZM529.84 433.888 531.173 433.901 531.16 435.234 529.826 435.221ZM532.506 433.915 533.84 433.928 533.826 435.262 532.493 435.248ZM535.173 433.942 536.506 433.955 536.493 435.289 535.159 435.275ZM537.839 433.969 539.173 433.982 539.159 435.316 537.826 435.302ZM540.506 433.996 541.839 434.01 541.826 435.343 540.492 435.329ZM543.173 434.023 544.506 434.037 544.492 435.37 543.159 435.356ZM545.839 434.05 547.172 434.064 547.159 435.397 545.826 435.383ZM548.506 434.077 549.839 434.091 549.825 435.424 548.492 435.411ZM551.172 434.104 552.505 434.118 552.492 435.451 551.159 435.438ZM553.839 434.132 555.172 434.145 555.158 435.478 553.825 435.465ZM556.505 434.159 557.838 434.172 557.825 435.505 556.492 435.492ZM559.172 434.186 560.505 434.199 560.491 435.533 559.158 435.519ZM561.838 434.213 563.172 434.226 563.158 435.56 561.825 435.546ZM564.505 434.24 565.838 434.253 565.824 435.587 564.491 435.573ZM567.171 434.267 568.505 434.281 568.491 435.614 567.158 435.6ZM569.838 434.294 571.171 434.308 571.158 435.641 569.824 435.627ZM572.504 434.321 573.838 434.335 573.824 435.668 572.491 435.654ZM575.171 434.348 576.504 434.362 576.491 435.695 575.157 435.682ZM577.837 434.375 579.171 434.389 579.157 435.722 577.824 435.709ZM580.504 434.402 581.837 434.416 581.824 435.749 580.49 435.736ZM583.17 434.43 584.504 434.443 584.49 435.776 583.157 435.763ZM585.837 434.457 587.17 434.47 587.157 435.803 585.823 435.79ZM588.504 434.484 589.837 434.497 589.823 435.831 588.49 435.817ZM591.17 434.511 592.503 434.524 592.49 435.858 591.156 435.844ZM593.837 434.538 595.17 434.551 595.156 435.885 593.823 435.871ZM596.503 434.565 597.836 434.579 597.823 435.912 596.49 435.898ZM599.17 434.592 600.503 434.606 600.489 435.939 599.156 435.925ZM601.836 434.619 603.169 434.633 603.156 435.966 601.823 435.952ZM604.503 434.646 605.836 434.66 605.822 435.993 604.489 435.98ZM607.169 434.673 608.503 434.687 608.489 436.02 607.156 436.007ZM609.836 434.701 611.169 434.714 611.155 436.047 609.822 436.034ZM612.502 434.728 613.836 434.741 613.822 436.074 612.489 436.061ZM615.169 434.755 616.502 434.768 616.489 436.102 615.155 436.088ZM617.835 434.782 619.169 434.795 619.155 436.129 617.822 436.115ZM620.502 434.809 621.835 434.822 621.822 436.156 620.488 436.142ZM623.168 434.836 624.502 434.85 624.488 436.183 623.155 436.169ZM625.835 434.863 627.168 434.877 627.155 436.21 625.821 436.196ZM628.501 434.89 629.835 434.904 629.821 436.237 628.488 436.223ZM631.168 434.917 632.501 434.931 632.488 436.264 631.154 436.251ZM633.835 434.944 635.168 434.958 635.154 436.291 633.821 436.278ZM636.501 434.971 637.834 434.985 637.821 436.318 636.487 436.305ZM639.168 434.999 640.501 435.012 640.487 436.345 639.154 436.332ZM641.834 435.026 643.167 435.039 643.154 436.372 641.821 436.359ZM644.501 435.053 645.489 435.063 645.475 436.396 644.487 436.386ZM644.19 431.716 652.149 435.797 644.108 439.716Z" fill="#4472C4"/><path d="M0.397181-0.535436 1.46805 0.258925 0.673692 1.3298-0.397181 0.535436ZM2.53893 1.05329 3.6098 1.84765 2.81544 2.91852 1.74456 2.12416ZM4.68067 2.64201 5.75154 3.43637 4.95718 4.50724 3.88631 3.71288ZM6.82241 4.23073 7.89329 5.02509 7.09892 6.09597 6.02805 5.3016ZM8.96416 5.81946 10.035 6.61382 9.24067 7.68469 8.1698 6.89033ZM11.1059 7.40818 12.1768 8.20254 11.3824 9.27341 10.3115 8.47905ZM13.2476 8.9969 14.3185 9.79126 13.5242 10.8621 12.4533 10.0678ZM15.3894 10.5856 16.4603 11.38 15.6659 12.4509 14.595 11.6565ZM17.5311 12.1743 18.602 12.9687 17.8076 14.0396 16.7368 13.2452ZM19.6729 13.7631 20.7438 14.5574 19.9494 15.6283 18.8785 14.8339ZM21.8146 15.3518 22.8855 16.1462 22.0911 17.217 21.0203 16.4227ZM23.9564 16.9405 25.0272 17.7349 24.2329 18.8058 23.162 18.0114ZM26.0981 18.5292 27.169 19.3236 26.3746 20.3945 25.3038 19.6001ZM28.2399 20.118 29.3107 20.9123 28.5164 21.9832 27.4455 21.1888ZM30.3816 21.7067 31.4525 22.5011 30.6581 23.5719 29.5872 22.7776ZM32.5234 23.2954 33.5942 24.0898 32.7999 25.1607 31.729 24.3663ZM34.6651 24.8841 35.736 25.6785 34.9416 26.7494 33.8707 25.955ZM36.8068 26.4729 37.8777 27.2672 37.0834 28.3381 36.0125 27.5437ZM38.9486 28.0616 40.0195 28.8559 39.2251 29.9268 38.1542 29.1325ZM41.0903 29.6503 42.1612 30.4447 41.3668 31.5155 40.296 30.7212ZM43.2321 31.239 44.303 32.0334 43.5086 33.1043 42.4377 32.3099ZM45.3738 32.8277 46.4447 33.6221 45.6503 34.693 44.5795 33.8986ZM47.5156 34.4165 48.5864 35.2108 47.7921 36.2817 46.7212 35.4873ZM49.6573 36.0052 50.7282 36.7995 49.9338 37.8704 48.863 37.0761ZM51.7991 37.5939 52.8699 38.3883 52.0756 39.4591 51.0047 38.6648ZM53.9408 39.1826 55.0117 39.977 54.2173 41.0479 53.1464 40.2535ZM56.0826 40.7713 57.1534 41.5657 56.3591 42.6366 55.2882 41.8422ZM58.2243 42.3601 59.2952 43.1544 58.5008 44.2253 57.4299 43.4309ZM60.366 43.9488 61.4369 44.7432 60.6426 45.814 59.5717 45.0197ZM62.5078 45.5375 63.5787 46.3319 62.7843 47.4027 61.7134 46.6084ZM64.6495 47.1262 65.7204 47.9206 64.926 48.9915 63.8552 48.1971ZM66.7913 48.715 67.8622 49.5093 67.0678 50.5802 65.9969 49.7858ZM68.933 50.3037 70.0039 51.098 69.2095 52.1689 68.1387 51.3746ZM71.0748 51.8924 72.1456 52.6868 71.3513 53.7576 70.2804 52.9633ZM73.2165 53.4811 74.2874 54.2755 73.493 55.3464 72.4222 54.552ZM75.3583 55.0699 76.4291 55.8642 75.6348 56.9351 74.5639 56.1407ZM77.5 56.6586 78.5709 57.4529 77.7765 58.5238 76.7057 57.7295ZM79.6417 58.2473 80.7126 59.0417 79.9183 60.1125 78.8474 59.3182ZM81.7835 59.836 82.8544 60.6304 82.06 61.7013 80.9891 60.9069ZM83.9252 61.4248 84.9961 62.2191 84.2018 63.29 83.1309 62.4956ZM86.067 63.0135 87.1379 63.8079 86.3435 64.8787 85.2726 64.0844ZM88.2087 64.6022 89.2796 65.3966 88.4852 66.4675 87.4144 65.6731ZM90.3505 66.1909 91.4213 66.9853 90.627 68.0562 89.5561 67.2618ZM92.4922 67.7797 93.5631 68.574 92.7687 69.6449 91.6979 68.8505ZM94.634 69.3684 95.7048 70.1628 94.9105 71.2336 93.8396 70.4393ZM96.7757 70.9571 97.8466 71.7515 97.0522 72.8224 95.9814 72.028ZM98.9175 72.5459 99.9883 73.3402 99.194 74.4111 98.1231 73.6167ZM101.059 74.1346 102.13 74.9289 101.336 75.9998 100.265 75.2055ZM103.201 75.7233 104.272 76.5176 103.477 77.5885 102.407 76.7942ZM105.343 77.312 106.414 78.1064 105.619 79.1772 104.548 78.3829ZM107.484 78.9007 108.555 79.6951 107.761 80.766 106.69 79.9716ZM109.626 80.4895 110.697 81.2838 109.903 82.3547 108.832 81.5603ZM111.768 82.0782 112.839 82.8725 112.044 83.9434 110.974 83.149ZM113.91 83.6669 114.981 84.4613 114.186 85.5321 113.115 84.7378ZM116.051 85.2556 117.122 86.05 116.328 87.1208 115.257 86.3265ZM118.193 86.8443 119.264 87.6387 118.47 88.7096 117.399 87.9152ZM120.335 88.4331 121.406 89.2274 120.611 90.2983 119.541 89.5039ZM122.477 90.0218 122.691 90.181 121.897 91.2519 121.682 91.0927ZM123.606 86.7095 127.648 94.6883 118.84 93.1347Z" fill="#4472C4" transform="matrix(1 0 0 -1 524.5 530.188)"/><path d="M0.606995-0.275685 1.15836 0.938304-0.0556251 1.48967-0.606995 0.275685ZM1.70973 2.15229 2.2611 3.36628 1.04711 3.91765 0.495745 2.70366ZM2.81247 4.58027 3.36384 5.79426 2.14985 6.34563 1.59848 5.13164ZM3.91521 7.00825 4.46658 8.22224 3.25259 8.77361 2.70122 7.55962ZM5.01795 9.43623 5.56932 10.6502 4.35533 11.2016 3.80396 9.9876ZM6.12069 11.8642 6.67206 13.0782 5.45807 13.6296 4.9067 12.4156ZM7.22343 14.2922 7.7748 15.5062 6.56081 16.0575 6.00944 14.8436ZM8.32617 16.7202 8.87754 17.9342 7.66355 18.4855 7.11218 17.2715ZM9.42891 19.1481 9.98028 20.3621 8.76629 20.9135 8.21492 19.6995ZM10.5316 21.5761 11.083 22.7901 9.86903 23.3415 9.31766 22.1275ZM11.6344 24.0041 12.1858 25.2181 10.9718 25.7695 10.4204 24.5555ZM12.7371 26.4321 13.2885 27.6461 12.0745 28.1974 11.5231 26.9834ZM13.8399 28.8601 14.3912 30.074 13.1772 30.6254 12.6259 29.4114ZM14.9426 31.288 15.494 32.502 14.28 33.0534 13.7286 31.8394ZM16.0453 33.716 16.5967 34.93 15.3827 35.4814 14.8314 34.2674ZM17.1481 36.144 17.6995 37.358 16.4855 37.9094 15.9341 36.6954ZM18.2508 38.572 18.8022 39.786 17.5882 40.3373 17.0368 39.1233ZM19.3536 41 19.9049 42.2139 18.6909 42.7653 18.1396 41.5513ZM20.4563 43.4279 21.0077 44.6419 19.7937 45.1933 19.2423 43.9793ZM21.559 45.8559 22.1104 47.0699 20.8964 47.6213 20.3451 46.4073ZM22.6618 48.2839 23.2132 49.4979 21.9992 50.0492 21.4478 48.8353ZM23.7645 50.7119 24.3159 51.9259 23.1019 52.4772 22.5505 51.2632ZM24.8673 53.1398 25.4186 54.3538 24.2046 54.9052 23.6533 53.6912ZM25.97 55.5678 26.5214 56.7818 25.3074 57.3332 24.756 56.1192ZM27.0727 57.9958 27.6241 59.2098 26.4101 59.7612 25.8587 58.5472ZM28.1755 60.4238 28.7268 61.6378 27.5129 62.1891 26.9615 60.9751ZM29.2782 62.8518 29.8296 64.0658 28.6156 64.6171 28.0642 63.4031ZM30.381 65.2797 30.9323 66.4937 29.7183 67.0451 29.167 65.8311ZM31.4837 67.7077 32.0351 68.9217 30.8211 69.4731 30.2697 68.2591ZM32.5864 70.1357 33.1378 71.3497 31.9238 71.9011 31.3724 70.6871ZM33.6892 72.5637 34.2405 73.7777 33.0265 74.329 32.4752 73.115ZM34.7919 74.9917 35.3433 76.2057 34.1293 76.757 33.5779 75.543ZM35.8946 77.4196 36.446 78.6336 35.232 79.185 34.6807 77.971ZM36.9974 79.8476 37.5488 81.0616 36.3348 81.613 35.7834 80.399ZM38.1001 82.2756 38.6515 83.4896 37.4375 84.0409 36.8861 82.827ZM39.2029 84.7036 39.7542 85.9175 38.5402 86.4689 37.9889 85.2549ZM40.3056 87.1315 40.857 88.3455 39.643 88.8969 39.0916 87.6829ZM41.4083 89.5595 41.4449 89.64 40.2309 90.1914 40.1944 90.1109ZM43.9285 87.0476 43.5947 95.9856 36.6446 90.3558Z" fill="#4472C4" transform="matrix(1 0 0 -1 718.5 339.486)"/><path d="M718.5 338.833 719.833 338.833 719.833 340.167 718.5 340.167ZM721.167 338.833 722.5 338.833 722.5 340.167 721.167 340.167ZM723.833 338.833 725.167 338.833 725.167 340.167 723.833 340.167ZM726.5 338.833 727.833 338.833 727.833 340.167 726.5 340.167ZM729.167 338.833 730.5 338.833 730.5 340.167 729.167 340.167ZM731.833 338.833 733.167 338.833 733.167 340.167 731.833 340.167ZM734.5 338.833 735.833 338.833 735.833 340.167 734.5 340.167ZM737.167 338.833 738.5 338.833 738.5 340.167 737.167 340.167ZM739.833 338.833 741.167 338.833 741.167 340.167 739.833 340.167ZM742.5 338.833 743.833 338.833 743.833 340.167 742.5 340.167ZM745.167 338.833 746.5 338.833 746.5 340.167 745.167 340.167ZM747.833 338.833 749.167 338.833 749.167 340.167 747.833 340.167ZM750.5 338.833 751.833 338.833 751.833 340.167 750.5 340.167ZM753.167 338.833 754.5 338.833 754.5 340.167 753.167 340.167ZM754.095 335.5 762.095 339.5 754.095 343.5Z" fill="#4472C4"/><path d="M719.107 339.224 719.658 340.438 718.444 340.99 717.893 339.776ZM720.21 341.652 720.761 342.866 719.547 343.418 718.996 342.204ZM721.313 344.08 721.864 345.294 720.65 345.846 720.099 344.632ZM722.415 346.508 722.967 347.722 721.753 348.274 721.201 347.06ZM723.518 348.936 724.069 350.15 722.855 350.702 722.304 349.488ZM724.621 351.364 725.172 352.578 723.958 353.13 723.407 351.916ZM725.724 353.792 726.275 355.006 725.061 355.558 724.51 354.344ZM726.826 356.22 727.378 357.434 726.164 357.986 725.612 356.772ZM727.929 358.648 728.48 359.862 727.266 360.414 726.715 359.2ZM729.032 361.076 729.583 362.29 728.369 362.842 727.818 361.628ZM730.134 363.504 730.686 364.718 729.472 365.27 728.92 364.056ZM731.237 365.932 731.789 367.146 730.575 367.697 730.023 366.483ZM732.34 368.36 732.891 369.574 731.677 370.125 731.126 368.911ZM733.443 370.788 733.994 372.002 732.78 372.553 732.229 371.339ZM734.545 373.216 735.097 374.43 733.883 374.981 733.331 373.767ZM735.648 375.644 736.2 376.858 734.986 377.409 734.434 376.195ZM736.751 378.072 737.302 379.286 736.088 379.837 735.537 378.623ZM737.854 380.5 738.405 381.714 737.191 382.265 736.64 381.051ZM738.956 382.928 739.508 384.142 738.294 384.693 737.742 383.479ZM740.059 385.356 740.611 386.57 739.397 387.121 738.845 385.907ZM741.162 387.784 741.713 388.998 740.499 389.549 739.948 388.335ZM742.265 390.212 742.816 391.426 741.602 391.977 741.051 390.763ZM743.367 392.64 743.919 393.854 742.705 394.405 742.153 393.191ZM744.47 395.068 745.021 396.282 743.807 396.833 743.256 395.619ZM745.573 397.496 746.124 398.71 744.91 399.261 744.359 398.047ZM746.676 399.924 747.227 401.138 746.013 401.689 745.462 400.475ZM747.778 402.352 748.33 403.566 747.116 404.117 746.564 402.903ZM748.881 404.78 749.432 405.994 748.218 406.545 747.667 405.331ZM749.984 407.208 750.535 408.422 749.321 408.973 748.77 407.759ZM751.087 409.636 751.638 410.85 750.424 411.401 749.873 410.187ZM752.189 412.064 752.741 413.278 751.527 413.829 750.975 412.615ZM753.292 414.492 753.843 415.706 752.629 416.257 752.078 415.043ZM754.395 416.92 754.946 418.134 753.732 418.685 753.181 417.471ZM755.497 419.348 756.049 420.562 754.835 421.113 754.284 419.899ZM756.6 421.776 757.152 422.99 755.938 423.541 755.386 422.327ZM757.703 424.204 758.254 425.418 757.04 425.969 756.489 424.755ZM758.806 426.632 759.357 427.846 758.143 428.397 757.592 427.183ZM759.909 429.06 759.945 429.14 758.731 429.691 758.695 429.611ZM762.429 426.547 762.095 435.485 755.145 429.856Z" fill="#4472C4"/><path d="M0.606994-0.275685 1.15836 0.938303-0.0556237 1.48967-0.606994 0.275685ZM1.70974 2.15229 2.26111 3.36628 1.04712 3.91765 0.495747 2.70366ZM2.81248 4.58027 3.36385 5.79426 2.14986 6.34563 1.59849 5.13164ZM3.91522 7.00825 4.46659 8.22223 3.2526 8.7736 2.70123 7.55962ZM5.01796 9.43622 5.56933 10.6502 4.35534 11.2016 3.80397 9.98759ZM6.1207 11.8642 6.67207 13.0782 5.45808 13.6296 4.90671 12.4156ZM7.22344 14.2922 7.77481 15.5062 6.56082 16.0575 6.00945 14.8435ZM8.32618 16.7202 8.87755 17.9341 7.66357 18.4855 7.11219 17.2715ZM9.42892 19.1481 9.98029 20.3621 8.76631 20.9135 8.21494 19.6995ZM10.5317 21.5761 11.083 22.7901 9.86905 23.3415 9.31768 22.1275ZM11.6344 24.0041 12.1858 25.2181 10.9718 25.7694 10.4204 24.5555ZM12.7371 26.4321 13.2885 27.646 12.0745 28.1974 11.5232 26.9834ZM13.8399 28.86 14.3913 30.074 13.1773 30.6254 12.6259 29.4114ZM14.9426 31.288 15.494 32.502 14.28 33.0534 13.7286 31.8394ZM16.0454 33.716 16.5967 34.93 15.3828 35.4814 14.8314 34.2674ZM17.1481 36.144 17.6995 37.358 16.4855 37.9093 15.9341 36.6953ZM18.2509 38.572 18.8022 39.7859 17.5882 40.3373 17.0369 39.1233ZM19.3536 40.9999 19.905 42.2139 18.691 42.7653 18.1396 41.5513ZM20.4563 43.4279 21.0077 44.6419 19.7937 45.1933 19.2423 43.9793ZM21.5591 45.8559 22.1105 47.0699 20.8965 47.6213 20.3451 46.4073ZM22.6618 48.2839 23.2132 49.4979 21.9992 50.0492 21.4478 48.8352ZM23.7646 50.7118 24.3159 51.9258 23.1019 52.4772 22.5506 51.2632ZM24.8673 53.1398 25.4187 54.3538 24.2047 54.9052 23.6533 53.6912ZM25.97 55.5678 26.5214 56.7818 25.3074 57.3332 24.7561 56.1192ZM27.0728 57.9958 27.6242 59.2098 26.4102 59.7611 25.8588 58.5471ZM28.1755 60.4238 28.7269 61.6378 27.5129 62.1891 26.9615 60.9751ZM29.2783 62.8517 29.8296 64.0657 28.6157 64.6171 28.0643 63.4031ZM30.381 65.2797 30.9324 66.4937 29.7184 67.0451 29.167 65.8311ZM31.4838 67.7077 32.0351 68.9217 30.8211 69.4731 30.2698 68.2591ZM32.5865 70.1357 33.1379 71.3497 31.9239 71.901 31.3725 70.687ZM33.6892 72.5637 34.2406 73.7776 33.0266 74.329 32.4753 73.115ZM34.792 74.9916 35.3434 76.2056 34.1294 76.757 33.578 75.543ZM35.8947 77.4196 36.4461 78.6336 35.2321 79.185 34.6807 77.971ZM36.9975 79.8476 37.5488 81.0616 36.3348 81.6129 35.7835 80.3989ZM38.1002 82.2756 38.6516 83.4895 37.4376 84.0409 36.8862 82.8269ZM39.2029 84.7035 39.7543 85.9175 38.5403 86.4689 37.989 85.2549ZM40.3057 87.1315 40.857 88.3455 39.6431 88.8969 39.0917 87.6829ZM41.4084 89.5595 41.4449 89.6398 40.2309 90.1912 40.1944 90.1108ZM43.9285 87.0474 43.5947 95.9854 36.6446 90.3556Z" fill="#4472C4" transform="matrix(1 0 0 -1 718.5 435.485)"/><path d="M719.107 435.224 719.658 436.438 718.444 436.99 717.893 435.776ZM720.21 437.652 720.761 438.866 719.547 439.418 718.996 438.204ZM721.313 440.08 721.864 441.294 720.65 441.846 720.099 440.632ZM722.415 442.508 722.967 443.722 721.753 444.274 721.201 443.06ZM723.518 444.936 724.069 446.15 722.855 446.702 722.304 445.488ZM724.621 447.364 725.172 448.578 723.958 449.13 723.407 447.916ZM725.724 449.792 726.275 451.006 725.061 451.558 724.51 450.344ZM726.826 452.22 727.378 453.434 726.164 453.986 725.612 452.772ZM727.929 454.648 728.48 455.862 727.266 456.414 726.715 455.2ZM729.032 457.076 729.583 458.29 728.369 458.842 727.818 457.628ZM730.134 459.504 730.686 460.718 729.472 461.27 728.92 460.056ZM731.237 461.932 731.789 463.146 730.575 463.697 730.023 462.483ZM732.34 464.36 732.891 465.574 731.677 466.125 731.126 464.911ZM733.443 466.788 733.994 468.002 732.78 468.553 732.229 467.339ZM734.545 469.216 735.097 470.43 733.883 470.981 733.331 469.767ZM735.648 471.644 736.2 472.858 734.986 473.409 734.434 472.195ZM736.751 474.072 737.302 475.286 736.088 475.837 735.537 474.623ZM737.854 476.5 738.405 477.714 737.191 478.265 736.64 477.051ZM738.956 478.928 739.508 480.142 738.294 480.693 737.742 479.479ZM740.059 481.356 740.611 482.57 739.397 483.121 738.845 481.907ZM741.162 483.784 741.713 484.998 740.499 485.549 739.948 484.335ZM742.265 486.212 742.816 487.426 741.602 487.977 741.051 486.763ZM743.367 488.64 743.919 489.854 742.705 490.405 742.153 489.191ZM744.47 491.068 745.021 492.282 743.807 492.833 743.256 491.619ZM745.573 493.496 746.124 494.71 744.91 495.261 744.359 494.047ZM746.676 495.924 747.227 497.138 746.013 497.689 745.462 496.475ZM747.778 498.352 748.33 499.566 747.116 500.117 746.564 498.903ZM748.881 500.78 749.432 501.994 748.218 502.545 747.667 501.331ZM749.984 503.208 750.535 504.422 749.321 504.973 748.77 503.759ZM751.087 505.636 751.638 506.85 750.424 507.401 749.873 506.187ZM752.189 508.064 752.741 509.278 751.527 509.829 750.975 508.615ZM753.292 510.492 753.843 511.706 752.629 512.257 752.078 511.043ZM754.395 512.92 754.946 514.134 753.732 514.685 753.181 513.471ZM755.497 515.348 756.049 516.562 754.835 517.113 754.284 515.899ZM756.6 517.776 757.152 518.99 755.938 519.541 755.386 518.327ZM757.703 520.204 758.254 521.418 757.04 521.969 756.489 520.755ZM758.806 522.632 759.357 523.846 758.143 524.397 757.592 523.183ZM759.909 525.06 759.945 525.14 758.731 525.691 758.695 525.611ZM762.429 522.547 762.095 531.485 755.145 525.856Z" fill="#4472C4"/><path d="M0.00677405-0.666632 1.34004-0.653084 1.32649 0.68018-0.00677405 0.666632ZM2.6733-0.639536 4.00657-0.625988 3.99302 0.707277 2.65975 0.693728ZM5.33983-0.61244 6.6731-0.598892 6.65955 0.734373 5.32628 0.720825ZM8.00636-0.585344 9.33962-0.571796 9.32608 0.761469 7.99281 0.747921ZM10.6729-0.558247 12.0062-0.544699 11.9926 0.788565 10.6593 0.775017ZM13.3394-0.531151 14.6727-0.517603 14.6591 0.815661 13.3259 0.802113ZM16.0059-0.504055 17.3392-0.490507 17.3257 0.842758 15.9924 0.829209ZM18.6725-0.476959 20.0057-0.463411 19.9922 0.869854 18.6589 0.856306ZM21.339-0.449863 22.6723-0.436315 22.6587 0.89695 21.3255 0.883402ZM24.0055-0.422766 25.3388-0.409218 25.3253 0.924046 23.992 0.910498ZM26.6721-0.39567 28.0053-0.382122 27.9918 0.951142 26.6585 0.937594ZM29.3386-0.368574 30.6719-0.355026 30.6583 0.978239 29.325 0.96469ZM32.0051-0.341478 33.3384-0.32793 33.3248 1.00533 31.9916 0.991787ZM34.6716-0.314382 36.0049-0.300834 35.9914 1.03243 34.6581 1.01888ZM37.3382-0.287285 38.6714-0.273737 38.6579 1.05953 37.3246 1.04598ZM40.0047-0.260189 41.338-0.246641 41.3244 1.08662 39.9912 1.07308ZM42.6712-0.233093 44.0045-0.219545 43.991 1.11372 42.6577 1.10017ZM45.3378-0.205997 46.671-0.192449 46.6575 1.14082 45.3242 1.12727ZM48.0043-0.178901 49.3376-0.165353 49.324 1.16791 47.9907 1.15436ZM50.6708-0.151805 52.0041-0.138256 51.9905 1.19501 50.6573 1.18146ZM53.3373-0.124708 54.6706-0.11116 54.6571 1.2221 53.3238 1.20856ZM56.0039-0.0976121 57.3371-0.0840639 57.3236 1.2492 55.9903 1.23565ZM58.6704-0.0705159 60.0037-0.0569678 59.9901 1.2763 58.6569 1.26275ZM61.3369-0.0434197 62.6702-0.0298715 62.6567 1.30339 61.3234 1.28984ZM64.0035-0.0163235 65.3367-0.00277539 65.3232 1.33049 63.9899 1.31694ZM66.67 0.0107727 68.0033 0.0243209 67.9897 1.35759 66.6565 1.34404ZM69.3365 0.0378689 70.6698 0.051417 70.6562 1.38468 69.323 1.37113ZM72.0031 0.0649651 73.3363 0.0785132 73.3228 1.41178 71.9895 1.39823ZM74.6696 0.0920613 76.0028 0.105609 75.9893 1.43887 74.656 1.42533ZM77.3361 0.119158 78.6694 0.132706 78.6558 1.46597 77.3226 1.45242ZM80.0026 0.146254 81.3359 0.159802 81.3224 1.49307 79.9891 1.47952ZM82.6692 0.17335 84.0024 0.186898 83.9889 1.52016 82.6556 1.50661ZM85.3357 0.200446 86.669 0.213994 86.6554 1.54726 85.3222 1.53371ZM88.0022 0.227542 89.3355 0.24109 89.3219 1.57435 87.9887 1.56081ZM90.6688 0.254639 92.002 0.268187 91.9885 1.60145 90.6552 1.5879ZM93.3353 0.281735 94.6686 0.295283 94.655 1.62855 93.3217 1.615ZM96.0018 0.308831 97.3351 0.322379 97.3215 1.65564 95.9883 1.6421ZM98.6683 0.335927 100.002 0.349475 99.9881 1.68274 98.6548 1.66919ZM101.335 0.363024 102.668 0.376572 102.655 1.70984 101.321 1.69629ZM104.001 0.39012 105.335 0.403668 105.321 1.73693 103.988 1.72338ZM106.668 0.417216 108.001 0.430764 107.988 1.76403 106.654 1.75048ZM109.334 0.444312 110.668 0.45786 110.654 1.79112 109.321 1.77758ZM112.001 0.471408 113.334 0.484956 113.321 1.81822 111.987 1.80467ZM114.668 0.498504 116.001 0.512052 115.987 1.84532 114.654 1.83177ZM117.334 0.525601 118.667 0.539149 118.654 1.87241 117.321 1.85887ZM120.001 0.552697 120.989 0.562739 120.975 1.896 119.987 1.88596ZM119.69-2.78397 127.648 1.29711 119.608 5.21562Z" fill="#4472C4" transform="matrix(1 0 0 -1 827.5 243.797)"/><path d="M827.897 242.965 828.968 243.759 828.174 244.83 827.103 244.035ZM830.039 244.553 831.11 245.348 830.315 246.419 829.245 245.624ZM832.181 246.142 833.252 246.936 832.457 248.007 831.386 247.213ZM834.322 247.731 835.393 248.525 834.599 249.596 833.528 248.802ZM836.464 249.32 837.535 250.114 836.741 251.185 835.67 250.39ZM838.606 250.908 839.677 251.703 838.882 252.773 837.812 251.979ZM840.748 252.497 841.819 253.291 841.024 254.362 839.953 253.568ZM842.889 254.086 843.96 254.88 843.166 255.951 842.095 255.157ZM845.031 255.674 846.102 256.469 845.308 257.54 844.237 256.745ZM847.173 257.263 848.244 258.057 847.449 259.128 846.379 258.334ZM849.315 258.852 850.386 259.646 849.591 260.717 848.52 259.923ZM851.456 260.441 852.527 261.235 851.733 262.306 850.662 261.511ZM853.598 262.029 854.669 262.824 853.875 263.895 852.804 263.1ZM855.74 263.618 856.811 264.412 856.016 265.483 854.946 264.689ZM857.882 265.207 858.953 266.001 858.158 267.072 857.087 266.278ZM860.023 266.796 861.094 267.59 860.3 268.661 859.229 267.866ZM862.165 268.384 863.236 269.179 862.442 270.249 861.371 269.455ZM864.307 269.973 865.378 270.767 864.583 271.838 863.513 271.044ZM866.449 271.562 867.519 272.356 866.725 273.427 865.654 272.633ZM868.59 273.15 869.661 273.945 868.867 275.016 867.796 274.221ZM870.732 274.739 871.803 275.534 871.009 276.604 869.938 275.81ZM872.874 276.328 873.945 277.122 873.15 278.193 872.079 277.399ZM875.016 277.917 876.086 278.711 875.292 279.782 874.221 278.987ZM877.157 279.505 878.228 280.3 877.434 281.371 876.363 280.576ZM879.299 281.094 880.37 281.888 879.576 282.959 878.505 282.165ZM881.441 282.683 882.512 283.477 881.717 284.548 880.646 283.754ZM883.583 284.271 884.653 285.066 883.859 286.137 882.788 285.342ZM885.724 285.86 886.795 286.655 886.001 287.725 884.93 286.931ZM887.866 287.449 888.937 288.243 888.143 289.314 887.072 288.52ZM890.008 289.038 891.079 289.832 890.284 290.903 889.213 290.109ZM892.15 290.626 893.22 291.421 892.426 292.492 891.355 291.697ZM894.291 292.215 895.362 293.009 894.568 294.08 893.497 293.286ZM896.433 293.804 897.504 294.598 896.71 295.669 895.639 294.875ZM898.575 295.393 899.646 296.187 898.851 297.258 897.78 296.463ZM900.717 296.981 901.787 297.776 900.993 298.847 899.922 298.052ZM902.858 298.57 903.929 299.364 903.135 300.435 902.064 299.641ZM905 300.159 906.071 300.953 905.277 302.024 904.206 301.23ZM907.142 301.747 908.213 302.542 907.418 303.613 906.347 302.818ZM909.284 303.336 910.354 304.131 909.56 305.201 908.489 304.407ZM911.425 304.925 912.496 305.719 911.702 306.79 910.631 305.996ZM913.567 306.514 914.638 307.308 913.844 308.379 912.773 307.585ZM915.709 308.102 916.78 308.897 915.985 309.968 914.914 309.173ZM917.85 309.691 918.921 310.486 918.127 311.556 917.056 310.762ZM919.992 311.28 921.063 312.074 920.269 313.145 919.198 312.351ZM922.134 312.869 923.205 313.663 922.411 314.734 921.34 313.939ZM924.276 314.457 925.347 315.252 924.552 316.323 923.481 315.528ZM926.417 316.046 927.488 316.84 926.694 317.911 925.623 317.117ZM928.559 317.635 929.63 318.429 928.836 319.5 927.765 318.706ZM930.701 319.223 931.772 320.018 930.977 321.089 929.907 320.294ZM932.843 320.812 933.914 321.607 933.119 322.677 932.048 321.883ZM934.984 322.401 936.055 323.195 935.261 324.266 934.19 323.472ZM937.126 323.99 938.197 324.784 937.403 325.855 936.332 325.061ZM939.268 325.578 940.339 326.373 939.544 327.444 938.474 326.649ZM941.41 327.167 942.48 327.961 941.686 329.032 940.615 328.238ZM943.551 328.756 944.622 329.55 943.828 330.621 942.757 329.827ZM945.693 330.345 946.764 331.139 945.97 332.21 944.899 331.415ZM947.835 331.933 948.906 332.728 948.111 333.798 947.04 333.004ZM949.977 333.522 950.191 333.681 949.397 334.752 949.182 334.593ZM951.106 330.21 955.149 338.189 946.34 336.635Z" fill="#4472C4"/><path d="M0.00677405-0.666632 1.34004-0.653084 1.32649 0.68018-0.00677405 0.666632ZM2.6733-0.639536 4.00657-0.625988 3.99302 0.707277 2.65975 0.693728ZM5.33983-0.61244 6.6731-0.598892 6.65955 0.734373 5.32628 0.720825ZM8.00636-0.585344 9.33962-0.571796 9.32608 0.761469 7.99281 0.747921ZM10.6729-0.558247 12.0062-0.544699 11.9926 0.788565 10.6593 0.775017ZM13.3394-0.531151 14.6727-0.517603 14.6591 0.815661 13.3259 0.802113ZM16.0059-0.504055 17.3392-0.490507 17.3257 0.842758 15.9924 0.829209ZM18.6725-0.476959 20.0057-0.463411 19.9922 0.869854 18.6589 0.856306ZM21.339-0.449863 22.6723-0.436315 22.6587 0.89695 21.3255 0.883402ZM24.0055-0.422766 25.3388-0.409218 25.3253 0.924046 23.992 0.910498ZM26.6721-0.39567 28.0053-0.382122 27.9918 0.951142 26.6585 0.937594ZM29.3386-0.368574 30.6719-0.355026 30.6583 0.978239 29.325 0.96469ZM32.0051-0.341478 33.3384-0.32793 33.3248 1.00533 31.9916 0.991787ZM34.6716-0.314382 36.0049-0.300834 35.9914 1.03243 34.6581 1.01888ZM37.3382-0.287285 38.6714-0.273737 38.6579 1.05953 37.3246 1.04598ZM40.0047-0.260189 41.338-0.246641 41.3244 1.08662 39.9912 1.07308ZM42.6712-0.233093 44.0045-0.219545 43.991 1.11372 42.6577 1.10017ZM45.3378-0.205997 46.671-0.192449 46.6575 1.14082 45.3242 1.12727ZM48.0043-0.178901 49.3376-0.165353 49.324 1.16791 47.9907 1.15436ZM50.6708-0.151805 52.0041-0.138256 51.9905 1.19501 50.6573 1.18146ZM53.3373-0.124708 54.6706-0.11116 54.6571 1.2221 53.3238 1.20856ZM56.0039-0.0976121 57.3371-0.0840639 57.3236 1.2492 55.9903 1.23565ZM58.6704-0.0705159 60.0037-0.0569678 59.9901 1.2763 58.6569 1.26275ZM61.3369-0.0434197 62.6702-0.0298715 62.6567 1.30339 61.3234 1.28984ZM64.0035-0.0163235 65.3367-0.00277539 65.3232 1.33049 63.9899 1.31694ZM66.67 0.0107727 68.0033 0.0243209 67.9897 1.35759 66.6565 1.34404ZM69.3365 0.0378689 70.6698 0.051417 70.6562 1.38468 69.323 1.37113ZM72.0031 0.0649651 73.3363 0.0785132 73.3228 1.41178 71.9895 1.39823ZM74.6696 0.0920613 76.0028 0.105609 75.9893 1.43887 74.656 1.42533ZM77.3361 0.119158 78.6694 0.132706 78.6558 1.46597 77.3226 1.45242ZM80.0026 0.146254 81.3359 0.159802 81.3224 1.49307 79.9891 1.47952ZM82.6692 0.17335 84.0024 0.186898 83.9889 1.52016 82.6556 1.50661ZM85.3357 0.200446 86.669 0.213994 86.6554 1.54726 85.3222 1.53371ZM88.0022 0.227542 89.3355 0.24109 89.3219 1.57435 87.9887 1.56081ZM90.6688 0.254639 92.002 0.268187 91.9885 1.60145 90.6552 1.5879ZM93.3353 0.281735 94.6686 0.295283 94.655 1.62855 93.3217 1.615ZM96.0018 0.308831 97.3351 0.322379 97.3215 1.65564 95.9883 1.6421ZM98.6683 0.335927 100.002 0.349475 99.9881 1.68274 98.6548 1.66919ZM101.335 0.363024 102.668 0.376572 102.655 1.70984 101.321 1.69629ZM104.001 0.39012 105.335 0.403668 105.321 1.73693 103.988 1.72338ZM106.668 0.417216 108.001 0.430764 107.988 1.76403 106.654 1.75048ZM109.334 0.444312 110.668 0.45786 110.654 1.79112 109.321 1.77758ZM112.001 0.471408 113.334 0.484956 113.321 1.81822 111.987 1.80467ZM114.668 0.498504 116.001 0.512052 115.987 1.84532 114.654 1.83177ZM117.334 0.525601 118.667 0.539149 118.654 1.87241 117.321 1.85887ZM120.001 0.552697 120.989 0.562739 120.975 1.896 119.987 1.88596ZM119.69-2.78397 127.648 1.29711 119.608 5.21562Z" fill="#4472C4" transform="matrix(1 0 0 -1 827.5 339.797)"/><path d="M827.897 338.965 828.968 339.759 828.174 340.83 827.103 340.035ZM830.039 340.553 831.11 341.348 830.315 342.419 829.245 341.624ZM832.181 342.142 833.252 342.936 832.457 344.007 831.386 343.213ZM834.322 343.731 835.393 344.525 834.599 345.596 833.528 344.802ZM836.464 345.32 837.535 346.114 836.741 347.185 835.67 346.39ZM838.606 346.908 839.677 347.703 838.882 348.773 837.812 347.979ZM840.748 348.497 841.819 349.291 841.024 350.362 839.953 349.568ZM842.889 350.086 843.96 350.88 843.166 351.951 842.095 351.157ZM845.031 351.674 846.102 352.469 845.308 353.54 844.237 352.745ZM847.173 353.263 848.244 354.057 847.449 355.128 846.379 354.334ZM849.315 354.852 850.386 355.646 849.591 356.717 848.52 355.923ZM851.456 356.441 852.527 357.235 851.733 358.306 850.662 357.511ZM853.598 358.029 854.669 358.824 853.875 359.895 852.804 359.1ZM855.74 359.618 856.811 360.412 856.016 361.483 854.946 360.689ZM857.882 361.207 858.953 362.001 858.158 363.072 857.087 362.278ZM860.023 362.795 861.094 363.59 860.3 364.661 859.229 363.866ZM862.165 364.384 863.236 365.179 862.442 366.249 861.371 365.455ZM864.307 365.973 865.378 366.767 864.583 367.838 863.513 367.044ZM866.449 367.562 867.52 368.356 866.725 369.427 865.654 368.633ZM868.59 369.15 869.661 369.945 868.867 371.016 867.796 370.221ZM870.732 370.739 871.803 371.533 871.009 372.604 869.938 371.81ZM872.874 372.328 873.945 373.122 873.15 374.193 872.08 373.399ZM875.016 373.917 876.086 374.711 875.292 375.782 874.221 374.987ZM877.157 375.505 878.228 376.3 877.434 377.37 876.363 376.576ZM879.299 377.094 880.37 377.888 879.576 378.959 878.505 378.165ZM881.441 378.683 882.512 379.477 881.717 380.548 880.646 379.754ZM883.583 380.271 884.654 381.066 883.859 382.137 882.788 381.342ZM885.724 381.86 886.795 382.654 886.001 383.725 884.93 382.931ZM887.866 383.449 888.937 384.243 888.143 385.314 887.072 384.52ZM890.008 385.038 891.079 385.832 890.284 386.903 889.214 386.108ZM892.15 386.626 893.22 387.421 892.426 388.492 891.355 387.697ZM894.291 388.215 895.362 389.009 894.568 390.08 893.497 389.286ZM896.433 389.804 897.504 390.598 896.71 391.669 895.639 390.875ZM898.575 391.392 899.646 392.187 898.851 393.258 897.78 392.463ZM900.717 392.981 901.787 393.776 900.993 394.846 899.922 394.052ZM902.858 394.57 903.929 395.364 903.135 396.435 902.064 395.641ZM905 396.159 906.071 396.953 905.277 398.024 904.206 397.23ZM907.142 397.747 908.213 398.542 907.418 399.613 906.347 398.818ZM909.284 399.336 910.354 400.13 909.56 401.201 908.489 400.407ZM911.425 400.925 912.496 401.719 911.702 402.79 910.631 401.996ZM913.567 402.514 914.638 403.308 913.844 404.379 912.773 403.584ZM915.709 404.102 916.78 404.897 915.985 405.968 914.914 405.173ZM917.851 405.691 918.921 406.485 918.127 407.556 917.056 406.762ZM919.992 407.28 921.063 408.074 920.269 409.145 919.198 408.351ZM922.134 408.868 923.205 409.663 922.411 410.734 921.34 409.939ZM924.276 410.457 925.347 411.252 924.552 412.322 923.481 411.528ZM926.418 412.046 927.488 412.84 926.694 413.911 925.623 413.117ZM928.559 413.635 929.63 414.429 928.836 415.5 927.765 414.706ZM930.701 415.223 931.772 416.018 930.978 417.089 929.907 416.294ZM932.843 416.812 933.914 417.606 933.119 418.677 932.048 417.883ZM934.984 418.401 936.055 419.195 935.261 420.266 934.19 419.472ZM937.126 419.99 938.197 420.784 937.403 421.855 936.332 421.06ZM939.268 421.578 940.339 422.373 939.544 423.443 938.474 422.649ZM941.41 423.167 942.481 423.961 941.686 425.032 940.615 424.238ZM943.551 424.756 944.622 425.55 943.828 426.621 942.757 425.827ZM945.693 426.344 946.764 427.139 945.97 428.21 944.899 427.415ZM947.835 427.933 948.906 428.727 948.111 429.798 947.041 429.004ZM949.977 429.522 950.191 429.681 949.397 430.752 949.182 430.593ZM951.106 426.21 955.149 434.188 946.34 432.635Z" fill="#4472C4"/><path d="M0.00677405-0.666632 1.34004-0.653084 1.32649 0.68018-0.00677405 0.666632ZM2.6733-0.639536 4.00657-0.625988 3.99302 0.707277 2.65975 0.693728ZM5.33983-0.61244 6.6731-0.598892 6.65955 0.734373 5.32628 0.720825ZM8.00636-0.585344 9.33962-0.571796 9.32608 0.761469 7.99281 0.747921ZM10.6729-0.558247 12.0062-0.544699 11.9926 0.788565 10.6593 0.775017ZM13.3394-0.531151 14.6727-0.517603 14.6591 0.815661 13.3259 0.802113ZM16.0059-0.504055 17.3392-0.490507 17.3257 0.842758 15.9924 0.829209ZM18.6725-0.476959 20.0057-0.463411 19.9922 0.869854 18.6589 0.856306ZM21.339-0.449863 22.6723-0.436315 22.6587 0.89695 21.3255 0.883402ZM24.0055-0.422766 25.3388-0.409218 25.3253 0.924046 23.992 0.910498ZM26.6721-0.39567 28.0053-0.382122 27.9918 0.951142 26.6585 0.937594ZM29.3386-0.368574 30.6719-0.355026 30.6583 0.978239 29.325 0.96469ZM32.0051-0.341478 33.3384-0.32793 33.3248 1.00533 31.9916 0.991787ZM34.6716-0.314382 36.0049-0.300834 35.9914 1.03243 34.6581 1.01888ZM37.3382-0.287285 38.6714-0.273737 38.6579 1.05953 37.3246 1.04598ZM40.0047-0.260189 41.338-0.246641 41.3244 1.08662 39.9912 1.07308ZM42.6712-0.233093 44.0045-0.219545 43.991 1.11372 42.6577 1.10017ZM45.3378-0.205997 46.671-0.192449 46.6575 1.14082 45.3242 1.12727ZM48.0043-0.178901 49.3376-0.165353 49.324 1.16791 47.9907 1.15436ZM50.6708-0.151805 52.0041-0.138256 51.9905 1.19501 50.6573 1.18146ZM53.3373-0.124708 54.6706-0.11116 54.6571 1.2221 53.3238 1.20856ZM56.0039-0.0976121 57.3371-0.0840639 57.3236 1.2492 55.9903 1.23565ZM58.6704-0.0705159 60.0037-0.0569678 59.9901 1.2763 58.6569 1.26275ZM61.3369-0.0434197 62.6702-0.0298715 62.6567 1.30339 61.3234 1.28984ZM64.0035-0.0163235 65.3367-0.00277539 65.3232 1.33049 63.9899 1.31694ZM66.67 0.0107727 68.0033 0.0243209 67.9897 1.35759 66.6565 1.34404ZM69.3365 0.0378689 70.6698 0.051417 70.6562 1.38468 69.323 1.37113ZM72.0031 0.0649651 73.3363 0.0785132 73.3228 1.41178 71.9895 1.39823ZM74.6696 0.0920613 76.0028 0.105609 75.9893 1.43887 74.656 1.42533ZM77.3361 0.119158 78.6694 0.132706 78.6558 1.46597 77.3226 1.45242ZM80.0026 0.146254 81.3359 0.159802 81.3224 1.49307 79.9891 1.47952ZM82.6692 0.17335 84.0024 0.186898 83.9889 1.52016 82.6556 1.50661ZM85.3357 0.200446 86.669 0.213994 86.6554 1.54726 85.3222 1.53371ZM88.0022 0.227542 89.3355 0.24109 89.3219 1.57435 87.9887 1.56081ZM90.6688 0.254639 92.002 0.268187 91.9885 1.60145 90.6552 1.5879ZM93.3353 0.281735 94.6686 0.295283 94.655 1.62855 93.3217 1.615ZM96.0018 0.308831 97.3351 0.322379 97.3215 1.65564 95.9883 1.6421ZM98.6683 0.335927 100.002 0.349475 99.9881 1.68274 98.6548 1.66919ZM101.335 0.363024 102.668 0.376572 102.655 1.70984 101.321 1.69629ZM104.001 0.39012 105.335 0.403668 105.321 1.73693 103.988 1.72338ZM106.668 0.417216 108.001 0.430764 107.988 1.76403 106.654 1.75048ZM109.334 0.444312 110.668 0.45786 110.654 1.79112 109.321 1.77758ZM112.001 0.471408 113.334 0.484956 113.321 1.81822 111.987 1.80467ZM114.668 0.498504 116.001 0.512052 115.987 1.84532 114.654 1.83177ZM117.334 0.525601 118.667 0.539149 118.654 1.87241 117.321 1.85887ZM120.001 0.552697 120.989 0.562739 120.975 1.896 119.987 1.88596ZM119.69-2.78397 127.648 1.29711 119.608 5.21562Z" fill="#4472C4" transform="matrix(1 0 0 -1 827.5 435.797)"/><path d="M0.404098-0.530235 1.46457 0.277962 0.656371 1.33843-0.404098 0.530235ZM2.52504 1.08616 3.58551 1.89436 2.77731 2.95483 1.71684 2.14663ZM4.64598 2.70255 5.70645 3.51075 4.89825 4.57122 3.83778 3.76302ZM6.76691 4.31895 7.82738 5.12714 7.01919 6.18761 5.95872 5.37942ZM8.88785 5.93534 9.94832 6.74354 9.14013 7.80401 8.07966 6.99581ZM11.0088 7.55173 12.0693 8.35993 11.2611 9.4204 10.2006 8.6122ZM13.1297 9.16813 14.1902 9.97633 13.382 11.0368 12.3215 10.2286ZM15.2507 10.7845 16.3111 11.5927 15.5029 12.6532 14.4425 11.845ZM17.3716 12.4009 18.4321 13.2091 17.6239 14.2696 16.5634 13.4614ZM19.4925 14.0173 20.553 14.8255 19.7448 15.886 18.6843 15.0778ZM21.6135 15.6337 22.674 16.4419 21.8658 17.5024 20.8053 16.6942ZM23.7344 17.2501 24.7949 18.0583 23.9867 19.1188 22.9262 18.3106ZM25.8554 18.8665 26.9158 19.6747 26.1076 20.7352 25.0472 19.927ZM27.9763 20.4829 29.0368 21.2911 28.2286 22.3516 27.1681 21.5434ZM30.0972 22.0993 31.1577 22.9075 30.3495 23.9679 29.289 23.1598ZM32.2182 23.7157 33.2786 24.5239 32.4704 25.5843 31.41 24.7761ZM34.3391 25.3321 35.3996 26.1403 34.5914 27.2007 33.5309 26.3925ZM36.4601 26.9485 37.5205 27.7567 36.7123 28.8171 35.6519 28.0089ZM38.581 28.5649 39.6415 29.3731 38.8333 30.4335 37.7728 29.6253ZM40.7019 30.1812 41.7624 30.9894 40.9542 32.0499 39.8937 31.2417ZM42.8229 31.7976 43.8833 32.6058 43.0751 33.6663 42.0147 32.8581ZM44.9438 33.414 46.0043 34.2222 45.1961 35.2827 44.1356 34.4745ZM47.0647 35.0304 48.1252 35.8386 47.317 36.8991 46.2565 36.0909ZM49.1857 36.6468 50.2462 37.455 49.438 38.5155 48.3775 37.7073ZM51.3066 38.2632 52.3671 39.0714 51.5589 40.1319 50.4984 39.3237ZM53.4276 39.8796 54.488 40.6878 53.6798 41.7483 52.6194 40.9401ZM55.5485 41.496 56.609 42.3042 55.8008 43.3647 54.7403 42.5565ZM57.6694 43.1124 58.7299 43.9206 57.9217 44.9811 56.8612 44.1729ZM59.7904 44.7288 60.8509 45.537 60.0427 46.5974 58.9822 45.7892ZM61.9113 46.3452 62.9718 47.1534 62.1636 48.2138 61.1031 47.4056ZM64.0323 47.9616 65.0928 48.7698 64.2845 49.8302 63.2241 49.022ZM66.1532 49.578 67.2137 50.3862 66.4055 51.4466 65.345 50.6384ZM68.2742 51.1944 69.3346 52.0026 68.5264 53.063 67.466 52.2548ZM70.3951 52.8107 71.4556 53.6189 70.6474 54.6794 69.5869 53.8712ZM72.516 54.4271 73.5765 55.2353 72.7683 56.2958 71.7078 55.4876ZM74.637 56.0435 75.6974 56.8517 74.8893 57.9122 73.8288 57.104ZM76.7579 57.6599 77.8184 58.4681 77.0102 59.5286 75.9497 58.7204ZM78.8788 59.2763 79.9393 60.0845 79.1311 61.145 78.0707 60.3368ZM80.9998 60.8927 82.0603 61.7009 81.2521 62.7614 80.1916 61.9532ZM83.1207 62.5091 84.1812 63.3173 83.373 64.3778 82.3125 63.5696ZM85.2417 64.1255 86.3021 64.9337 85.4939 65.9942 84.4335 65.186ZM87.3626 65.7419 88.4231 66.5501 87.6149 67.6105 86.5544 66.8024ZM89.4835 67.3583 90.544 68.1665 89.7358 69.2269 88.6753 68.4187ZM91.6045 68.9747 92.6649 69.7829 91.8568 70.8433 90.7963 70.0351ZM93.7254 70.5911 94.7859 71.3992 93.9777 72.4597 92.9172 71.6515ZM95.8464 72.2074 96.9068 73.0156 96.0986 74.0761 95.0382 73.2679ZM97.9673 73.8238 99.0278 74.632 98.2196 75.6925 97.1591 74.8843ZM100.088 75.4402 101.149 76.2484 100.34 77.3089 99.28 76.5007ZM102.209 77.0566 103.27 77.8648 102.461 78.9253 101.401 78.1171ZM104.33 78.673 105.391 79.4812 104.582 80.5417 103.522 79.7335ZM106.451 80.2894 107.512 81.0976 106.703 82.1581 105.643 81.3499ZM108.572 81.9058 109.632 82.714 108.824 83.7745 107.764 82.9663ZM110.693 83.5222 111.753 84.3304 110.945 85.3909 109.885 84.5827ZM112.814 85.1386 113.874 85.9468 113.066 87.0073 112.006 86.1991ZM114.935 86.755 115.995 87.5632 115.187 88.6237 114.127 87.8155ZM117.056 88.3714 118.116 89.1796 117.308 90.2401 116.248 89.4319ZM119.177 89.9878 120.237 90.796 119.429 91.8565 118.368 91.0483ZM121.298 91.6042 122.358 92.4124 121.55 93.4729 120.489 92.6647ZM123.71 89.2519 127.648 97.2825 118.861 95.6147Z" fill="#4472C4" transform="matrix(1 0 0 -1 827.5 531.783)"/><path d="M0.012354-0.666552 1.34546-0.641844 1.32075 0.69126-0.012354 0.666552ZM2.67856-0.617136 4.01167-0.592428 3.98696 0.740676 2.65385 0.715968ZM5.34477-0.56772 6.67788-0.543012 6.65317 0.790092 5.32006 0.765384ZM8.01098-0.518304 9.34408-0.493596 9.31938 0.839509 7.98627 0.8148ZM10.6772-0.468888 12.0103-0.44418 11.9856 0.888925 10.6525 0.864217ZM13.3434-0.419472 14.6765-0.394764 14.6518 0.938341 13.3187 0.913633ZM16.0096-0.370055 17.3427-0.345347 17.318 0.987757 15.9849 0.963049ZM18.6758-0.320639 20.0089-0.295931 19.9842 1.03717 18.6511 1.01246ZM21.342-0.271223 22.6751-0.246515 22.6504 1.08659 21.3173 1.06188ZM24.0082-0.221807 25.3413-0.197099 25.3166 1.13601 23.9835 1.1113ZM26.6744-0.172391 28.0075-0.147683 27.9828 1.18542 26.6497 1.16071ZM29.3406-0.122975 30.6737-0.0982669 30.649 1.23484 29.3159 1.21013ZM32.0069-0.0735588 33.34-0.0488508 33.3152 1.28425 31.9821 1.25955ZM34.6731-0.0241428 36.0062 0.000565227 35.9815 1.33367 34.6484 1.30896ZM37.3393 0.0252733 38.6724 0.0499813 38.6477 1.38309 37.3146 1.35838ZM40.0055 0.0746893 41.3386 0.0993973 41.3139 1.4325 39.9808 1.40779ZM40.4842-3.25034 48.4087 0.897218 40.336 4.74828Z" fill="#4472C4" transform="matrix(1 0 0 -1 300.5 435.397)"/><path d="M1021.5 241.833 1022.83 241.833 1022.83 243.167 1021.5 243.167ZM1024.17 241.833 1025.5 241.833 1025.5 243.167 1024.17 243.167ZM1026.83 241.833 1028.17 241.833 1028.17 243.167 1026.83 243.167ZM1029.5 241.833 1030.83 241.833 1030.83 243.167 1029.5 243.167ZM1032.17 241.833 1033.5 241.833 1033.5 243.167 1032.17 243.167ZM1034.83 241.833 1036.17 241.833 1036.17 243.167 1034.83 243.167ZM1037.5 241.833 1038.83 241.833 1038.83 243.167 1037.5 243.167ZM1040.17 241.833 1041.5 241.833 1041.5 243.167 1040.17 243.167ZM1042.83 241.833 1044.17 241.833 1044.17 243.167 1042.83 243.167ZM1045.5 241.833 1046.83 241.833 1046.83 243.167 1045.5 243.167ZM1048.17 241.833 1049.5 241.833 1049.5 243.167 1048.17 243.167ZM1050.83 241.833 1052.17 241.833 1052.17 243.167 1050.83 243.167ZM1053.5 241.833 1054.83 241.833 1054.83 243.167 1053.5 243.167ZM1056.17 241.833 1057.5 241.833 1057.5 243.167 1056.17 243.167ZM1057.09 238.5 1065.09 242.5 1057.09 246.5Z" fill="#4472C4"/><path d="M1022.11 242.224 1022.66 243.438 1021.44 243.99 1020.89 242.776ZM1023.21 244.652 1023.76 245.866 1022.55 246.418 1022 245.204ZM1024.31 247.08 1024.86 248.294 1023.65 248.846 1023.1 247.632ZM1025.42 249.508 1025.97 250.722 1024.75 251.274 1024.2 250.06ZM1026.52 251.936 1027.07 253.15 1025.86 253.702 1025.3 252.488ZM1027.62 254.364 1028.17 255.578 1026.96 256.13 1026.41 254.916ZM1028.72 256.792 1029.27 258.006 1028.06 258.558 1027.51 257.344ZM1029.83 259.22 1030.38 260.434 1029.16 260.986 1028.61 259.772ZM1030.93 261.648 1031.48 262.862 1030.27 263.414 1029.71 262.2ZM1032.03 264.076 1032.58 265.29 1031.37 265.842 1030.82 264.628ZM1033.13 266.504 1033.69 267.718 1032.47 268.27 1031.92 267.056ZM1034.24 268.932 1034.79 270.146 1033.57 270.697 1033.02 269.483ZM1035.34 271.36 1035.89 272.574 1034.68 273.125 1034.13 271.911ZM1036.44 273.788 1036.99 275.002 1035.78 275.553 1035.23 274.339ZM1037.55 276.216 1038.1 277.43 1036.88 277.981 1036.33 276.767ZM1038.65 278.644 1039.2 279.858 1037.99 280.409 1037.43 279.195ZM1039.75 281.072 1040.3 282.286 1039.09 282.837 1038.54 281.623ZM1040.85 283.5 1041.41 284.714 1040.19 285.265 1039.64 284.051ZM1041.96 285.928 1042.51 287.142 1041.29 287.693 1040.74 286.479ZM1043.06 288.356 1043.61 289.57 1042.4 290.121 1041.85 288.907ZM1044.16 290.784 1044.71 291.998 1043.5 292.549 1042.95 291.335ZM1045.26 293.212 1045.82 294.426 1044.6 294.977 1044.05 293.763ZM1046.37 295.64 1046.92 296.854 1045.7 297.405 1045.15 296.191ZM1047.47 298.068 1048.02 299.282 1046.81 299.833 1046.26 298.619ZM1048.57 300.496 1049.12 301.71 1047.91 302.261 1047.36 301.047ZM1049.68 302.924 1050.23 304.138 1049.01 304.689 1048.46 303.475ZM1050.78 305.352 1051.33 306.566 1050.12 307.117 1049.56 305.903ZM1051.88 307.78 1052.43 308.994 1051.22 309.545 1050.67 308.331ZM1052.98 310.208 1053.54 311.422 1052.32 311.973 1051.77 310.759ZM1054.09 312.636 1054.64 313.85 1053.42 314.401 1052.87 313.187ZM1055.19 315.064 1055.74 316.278 1054.53 316.829 1053.98 315.615ZM1056.29 317.492 1056.84 318.706 1055.63 319.257 1055.08 318.043ZM1057.39 319.92 1057.95 321.134 1056.73 321.685 1056.18 320.471ZM1058.5 322.348 1059.05 323.562 1057.83 324.113 1057.28 322.899ZM1059.6 324.776 1060.15 325.99 1058.94 326.541 1058.39 325.327ZM1060.7 327.204 1061.25 328.418 1060.04 328.969 1059.49 327.755ZM1061.81 329.632 1062.36 330.846 1061.14 331.397 1060.59 330.183ZM1062.91 332.06 1062.94 332.14 1061.73 332.691 1061.69 332.611ZM1065.43 329.548 1065.09 338.486 1058.14 332.856Z" fill="#4472C4"/><path d="M1021.5 337.833 1022.83 337.833 1022.83 339.167 1021.5 339.167ZM1024.17 337.833 1025.5 337.833 1025.5 339.167 1024.17 339.167ZM1026.83 337.833 1028.17 337.833 1028.17 339.167 1026.83 339.167ZM1029.5 337.833 1030.83 337.833 1030.83 339.167 1029.5 339.167ZM1032.17 337.833 1033.5 337.833 1033.5 339.167 1032.17 339.167ZM1034.83 337.833 1036.17 337.833 1036.17 339.167 1034.83 339.167ZM1037.5 337.833 1038.83 337.833 1038.83 339.167 1037.5 339.167ZM1040.17 337.833 1041.5 337.833 1041.5 339.167 1040.17 339.167ZM1042.83 337.833 1044.17 337.833 1044.17 339.167 1042.83 339.167ZM1045.5 337.833 1046.83 337.833 1046.83 339.167 1045.5 339.167ZM1048.17 337.833 1049.5 337.833 1049.5 339.167 1048.17 339.167ZM1050.83 337.833 1052.17 337.833 1052.17 339.167 1050.83 339.167ZM1053.5 337.833 1054.83 337.833 1054.83 339.167 1053.5 339.167ZM1056.17 337.833 1057.5 337.833 1057.5 339.167 1056.17 339.167ZM1057.09 334.5 1065.09 338.5 1057.09 342.5Z" fill="#4472C4"/><path d="M0.606995-0.275685 1.15836 0.938304-0.0556251 1.48967-0.606995 0.275685ZM1.70973 2.15229 2.2611 3.36628 1.04711 3.91765 0.495745 2.70366ZM2.81247 4.58027 3.36384 5.79426 2.14985 6.34563 1.59848 5.13164ZM3.91521 7.00825 4.46658 8.22224 3.25259 8.77361 2.70122 7.55962ZM5.01795 9.43623 5.56932 10.6502 4.35533 11.2016 3.80396 9.9876ZM6.12069 11.8642 6.67206 13.0782 5.45807 13.6296 4.9067 12.4156ZM7.22343 14.2922 7.7748 15.5062 6.56081 16.0575 6.00944 14.8436ZM8.32617 16.7202 8.87754 17.9342 7.66355 18.4855 7.11218 17.2715ZM9.42891 19.1481 9.98028 20.3621 8.76629 20.9135 8.21492 19.6995ZM10.5316 21.5761 11.083 22.7901 9.86903 23.3415 9.31766 22.1275ZM11.6344 24.0041 12.1858 25.2181 10.9718 25.7695 10.4204 24.5555ZM12.7371 26.4321 13.2885 27.6461 12.0745 28.1974 11.5231 26.9834ZM13.8399 28.8601 14.3912 30.074 13.1772 30.6254 12.6259 29.4114ZM14.9426 31.288 15.494 32.502 14.28 33.0534 13.7286 31.8394ZM16.0453 33.716 16.5967 34.93 15.3827 35.4814 14.8314 34.2674ZM17.1481 36.144 17.6995 37.358 16.4855 37.9094 15.9341 36.6954ZM18.2508 38.572 18.8022 39.786 17.5882 40.3373 17.0368 39.1233ZM19.3536 41 19.9049 42.2139 18.6909 42.7653 18.1396 41.5513ZM20.4563 43.4279 21.0077 44.6419 19.7937 45.1933 19.2423 43.9793ZM21.559 45.8559 22.1104 47.0699 20.8964 47.6213 20.3451 46.4073ZM22.6618 48.2839 23.2132 49.4979 21.9992 50.0492 21.4478 48.8353ZM23.7645 50.7119 24.3159 51.9259 23.1019 52.4772 22.5505 51.2632ZM24.8673 53.1398 25.4186 54.3538 24.2046 54.9052 23.6533 53.6912ZM25.97 55.5678 26.5214 56.7818 25.3074 57.3332 24.756 56.1192ZM27.0727 57.9958 27.6241 59.2098 26.4101 59.7612 25.8587 58.5472ZM28.1755 60.4238 28.7268 61.6378 27.5129 62.1891 26.9615 60.9751ZM29.2782 62.8518 29.8296 64.0658 28.6156 64.6171 28.0642 63.4031ZM30.381 65.2797 30.9323 66.4937 29.7183 67.0451 29.167 65.8311ZM31.4837 67.7077 32.0351 68.9217 30.8211 69.4731 30.2697 68.2591ZM32.5864 70.1357 33.1378 71.3497 31.9238 71.9011 31.3724 70.6871ZM33.6892 72.5637 34.2405 73.7777 33.0265 74.329 32.4752 73.115ZM34.7919 74.9917 35.3433 76.2057 34.1293 76.757 33.5779 75.543ZM35.8946 77.4196 36.446 78.6336 35.232 79.185 34.6807 77.971ZM36.9974 79.8476 37.5488 81.0616 36.3348 81.613 35.7834 80.399ZM38.1001 82.2756 38.6515 83.4896 37.4375 84.0409 36.8861 82.827ZM39.2029 84.7036 39.7542 85.9175 38.5402 86.4689 37.9889 85.2549ZM40.3056 87.1315 40.857 88.3455 39.643 88.8969 39.0916 87.6829ZM41.4083 89.5595 41.4449 89.64 40.2309 90.1914 40.1944 90.1109ZM43.9285 87.0476 43.5947 95.9856 36.6446 90.3558Z" fill="#4472C4" transform="matrix(1 0 0 -1 1021.5 338.486)"/><path d="M1021.5 433.833 1022.83 433.833 1022.83 435.167 1021.5 435.167ZM1024.17 433.833 1025.5 433.833 1025.5 435.167 1024.17 435.167ZM1026.83 433.833 1028.17 433.833 1028.17 435.167 1026.83 435.167ZM1029.5 433.833 1030.83 433.833 1030.83 435.167 1029.5 435.167ZM1032.17 433.833 1033.5 433.833 1033.5 435.167 1032.17 435.167ZM1034.83 433.833 1036.17 433.833 1036.17 435.167 1034.83 435.167ZM1037.5 433.833 1038.83 433.833 1038.83 435.167 1037.5 435.167ZM1040.17 433.833 1041.5 433.833 1041.5 435.167 1040.17 435.167ZM1042.83 433.833 1044.17 433.833 1044.17 435.167 1042.83 435.167ZM1045.5 433.833 1046.83 433.833 1046.83 435.167 1045.5 435.167ZM1048.17 433.833 1049.5 433.833 1049.5 435.167 1048.17 435.167ZM1050.83 433.833 1052.17 433.833 1052.17 435.167 1050.83 435.167ZM1053.5 433.833 1054.83 433.833 1054.83 435.167 1053.5 435.167ZM1056.17 433.833 1057.5 433.833 1057.5 435.167 1056.17 435.167ZM1057.09 430.5 1065.09 434.5 1057.09 438.5Z" fill="#4472C4"/><path d="M0.606994-0.275685 1.15836 0.938303-0.0556237 1.48967-0.606994 0.275685ZM1.70974 2.15229 2.26111 3.36628 1.04712 3.91765 0.495747 2.70366ZM2.81248 4.58027 3.36385 5.79426 2.14986 6.34563 1.59849 5.13164ZM3.91522 7.00825 4.46659 8.22223 3.2526 8.7736 2.70123 7.55962ZM5.01796 9.43622 5.56933 10.6502 4.35534 11.2016 3.80397 9.98759ZM6.1207 11.8642 6.67207 13.0782 5.45808 13.6296 4.90671 12.4156ZM7.22344 14.2922 7.77481 15.5062 6.56082 16.0575 6.00945 14.8435ZM8.32618 16.7202 8.87755 17.9341 7.66357 18.4855 7.11219 17.2715ZM9.42892 19.1481 9.98029 20.3621 8.76631 20.9135 8.21494 19.6995ZM10.5317 21.5761 11.083 22.7901 9.86905 23.3415 9.31768 22.1275ZM11.6344 24.0041 12.1858 25.2181 10.9718 25.7694 10.4204 24.5555ZM12.7371 26.4321 13.2885 27.646 12.0745 28.1974 11.5232 26.9834ZM13.8399 28.86 14.3913 30.074 13.1773 30.6254 12.6259 29.4114ZM14.9426 31.288 15.494 32.502 14.28 33.0534 13.7286 31.8394ZM16.0454 33.716 16.5967 34.93 15.3828 35.4814 14.8314 34.2674ZM17.1481 36.144 17.6995 37.358 16.4855 37.9093 15.9341 36.6953ZM18.2509 38.572 18.8022 39.7859 17.5882 40.3373 17.0369 39.1233ZM19.3536 40.9999 19.905 42.2139 18.691 42.7653 18.1396 41.5513ZM20.4563 43.4279 21.0077 44.6419 19.7937 45.1933 19.2423 43.9793ZM21.5591 45.8559 22.1105 47.0699 20.8965 47.6213 20.3451 46.4073ZM22.6618 48.2839 23.2132 49.4979 21.9992 50.0492 21.4478 48.8352ZM23.7646 50.7118 24.3159 51.9258 23.1019 52.4772 22.5506 51.2632ZM24.8673 53.1398 25.4187 54.3538 24.2047 54.9052 23.6533 53.6912ZM25.97 55.5678 26.5214 56.7818 25.3074 57.3332 24.7561 56.1192ZM27.0728 57.9958 27.6242 59.2098 26.4102 59.7611 25.8588 58.5471ZM28.1755 60.4238 28.7269 61.6378 27.5129 62.1891 26.9615 60.9751ZM29.2783 62.8517 29.8296 64.0657 28.6157 64.6171 28.0643 63.4031ZM30.381 65.2797 30.9324 66.4937 29.7184 67.0451 29.167 65.8311ZM31.4838 67.7077 32.0351 68.9217 30.8211 69.4731 30.2698 68.2591ZM32.5865 70.1357 33.1379 71.3497 31.9239 71.901 31.3725 70.687ZM33.6892 72.5637 34.2406 73.7776 33.0266 74.329 32.4753 73.115ZM34.792 74.9916 35.3434 76.2056 34.1294 76.757 33.578 75.543ZM35.8947 77.4196 36.4461 78.6336 35.2321 79.185 34.6807 77.971ZM36.9975 79.8476 37.5488 81.0616 36.3348 81.6129 35.7835 80.3989ZM38.1002 82.2756 38.6516 83.4895 37.4376 84.0409 36.8862 82.8269ZM39.2029 84.7035 39.7543 85.9175 38.5403 86.4689 37.989 85.2549ZM40.3057 87.1315 40.857 88.3455 39.6431 88.8969 39.0917 87.6829ZM41.4084 89.5595 41.4449 89.6398 40.2309 90.1912 40.1944 90.1108ZM43.9285 87.0474 43.5947 95.9854 36.6446 90.3556Z" fill="#4472C4" transform="matrix(1 0 0 -1 1021.5 434.485)"/><path d="M1022.11 434.224 1022.66 435.438 1021.44 435.99 1020.89 434.776ZM1023.21 436.652 1023.76 437.866 1022.55 438.418 1022 437.204ZM1024.31 439.08 1024.86 440.294 1023.65 440.846 1023.1 439.632ZM1025.42 441.508 1025.97 442.722 1024.75 443.274 1024.2 442.06ZM1026.52 443.936 1027.07 445.15 1025.86 445.702 1025.3 444.488ZM1027.62 446.364 1028.17 447.578 1026.96 448.13 1026.41 446.916ZM1028.72 448.792 1029.27 450.006 1028.06 450.558 1027.51 449.344ZM1029.83 451.22 1030.38 452.434 1029.16 452.986 1028.61 451.772ZM1030.93 453.648 1031.48 454.862 1030.27 455.414 1029.71 454.2ZM1032.03 456.076 1032.58 457.29 1031.37 457.842 1030.82 456.628ZM1033.13 458.504 1033.69 459.718 1032.47 460.27 1031.92 459.056ZM1034.24 460.932 1034.79 462.146 1033.57 462.697 1033.02 461.483ZM1035.34 463.36 1035.89 464.574 1034.68 465.125 1034.13 463.911ZM1036.44 465.788 1036.99 467.002 1035.78 467.553 1035.23 466.339ZM1037.55 468.216 1038.1 469.43 1036.88 469.981 1036.33 468.767ZM1038.65 470.644 1039.2 471.858 1037.99 472.409 1037.43 471.195ZM1039.75 473.072 1040.3 474.286 1039.09 474.837 1038.54 473.623ZM1040.85 475.5 1041.41 476.714 1040.19 477.265 1039.64 476.051ZM1041.96 477.928 1042.51 479.142 1041.29 479.693 1040.74 478.479ZM1043.06 480.356 1043.61 481.57 1042.4 482.121 1041.85 480.907ZM1044.16 482.784 1044.71 483.998 1043.5 484.549 1042.95 483.335ZM1045.26 485.212 1045.82 486.426 1044.6 486.977 1044.05 485.763ZM1046.37 487.64 1046.92 488.854 1045.7 489.405 1045.15 488.191ZM1047.47 490.068 1048.02 491.282 1046.81 491.833 1046.26 490.619ZM1048.57 492.496 1049.12 493.71 1047.91 494.261 1047.36 493.047ZM1049.68 494.924 1050.23 496.138 1049.01 496.689 1048.46 495.475ZM1050.78 497.352 1051.33 498.566 1050.12 499.117 1049.56 497.903ZM1051.88 499.78 1052.43 500.994 1051.22 501.545 1050.67 500.331ZM1052.98 502.208 1053.54 503.422 1052.32 503.973 1051.77 502.759ZM1054.09 504.636 1054.64 505.85 1053.42 506.401 1052.87 505.187ZM1055.19 507.064 1055.74 508.278 1054.53 508.829 1053.98 507.615ZM1056.29 509.492 1056.84 510.706 1055.63 511.257 1055.08 510.043ZM1057.39 511.92 1057.95 513.134 1056.73 513.685 1056.18 512.471ZM1058.5 514.348 1059.05 515.562 1057.83 516.113 1057.28 514.899ZM1059.6 516.776 1060.15 517.99 1058.94 518.541 1058.39 517.327ZM1060.7 519.204 1061.25 520.418 1060.04 520.969 1059.49 519.755ZM1061.81 521.632 1062.36 522.846 1061.14 523.397 1060.59 522.183ZM1062.91 524.06 1062.94 524.14 1061.73 524.691 1061.69 524.611ZM1065.43 521.547 1065.09 530.485 1058.14 524.856Z" fill="#4472C4"/><rect x="349.5" y="64.5001" width="175" height="96" stroke="#2F528F" stroke-width="5.33333" stroke-miterlimit="8" fill="none"/><text font-family="Calibri,Calibri_MSFontService,sans-serif" font-weight="400" font-size="24" transform="translate(420.044 120)">Fall</text><rect x="652.5" y="64.5001" width="175" height="96" stroke="#2F528F" stroke-width="5.33333" stroke-miterlimit="8" fill="none"/><text font-family="Calibri,Calibri_MSFontService,sans-serif" font-weight="400" font-size="24" transform="translate(705.749 120)">Winter</text><rect x="955.5" y="64.5001" width="175" height="96" stroke="#2F528F" stroke-width="5.33333" stroke-miterlimit="8" fill="none"/><text font-family="Calibri,Calibri_MSFontService,sans-serif" font-weight="400" font-size="24" transform="translate(1011.63 120)">Spring</text><path d="M718.5 434.833 719.833 434.833 719.833 436.167 718.5 436.167ZM721.167 434.833 722.5 434.833 722.5 436.167 721.167 436.167ZM723.833 434.833 725.167 434.833 725.167 436.167 723.833 436.167ZM726.5 434.833 727.833 434.833 727.833 436.167 726.5 436.167ZM729.167 434.833 730.5 434.833 730.5 436.167 729.167 436.167ZM731.833 434.833 733.167 434.833 733.167 436.167 731.833 436.167ZM734.5 434.833 735.833 434.833 735.833 436.167 734.5 436.167ZM737.167 434.833 738.5 434.833 738.5 436.167 737.167 436.167ZM739.833 434.833 741.167 434.833 741.167 436.167 739.833 436.167ZM742.5 434.833 743.833 434.833 743.833 436.167 742.5 436.167ZM745.167 434.833 746.5 434.833 746.5 436.167 745.167 436.167ZM747.833 434.833 749.167 434.833 749.167 436.167 747.833 436.167ZM750.5 434.833 751.833 434.833 751.833 436.167 750.5 436.167ZM753.167 434.833 754.5 434.833 754.5 436.167 753.167 436.167ZM754.095 431.5 762.095 435.5 754.095 439.5Z" fill="#4472C4"/><path d="M1022.11 338.224 1022.66 339.438 1021.44 339.99 1020.89 338.776ZM1023.21 340.652 1023.76 341.866 1022.55 342.418 1022 341.204ZM1024.31 343.08 1024.86 344.294 1023.65 344.846 1023.1 343.632ZM1025.42 345.508 1025.97 346.722 1024.75 347.274 1024.2 346.06ZM1026.52 347.936 1027.07 349.15 1025.86 349.702 1025.3 348.488ZM1027.62 350.364 1028.17 351.578 1026.96 352.13 1026.41 350.916ZM1028.72 352.792 1029.27 354.006 1028.06 354.558 1027.51 353.344ZM1029.83 355.22 1030.38 356.434 1029.16 356.986 1028.61 355.772ZM1030.93 357.648 1031.48 358.862 1030.27 359.414 1029.71 358.2ZM1032.03 360.076 1032.58 361.29 1031.37 361.842 1030.82 360.628ZM1033.13 362.504 1033.69 363.718 1032.47 364.27 1031.92 363.056ZM1034.24 364.932 1034.79 366.146 1033.57 366.697 1033.02 365.483ZM1035.34 367.36 1035.89 368.574 1034.68 369.125 1034.13 367.911ZM1036.44 369.788 1036.99 371.002 1035.78 371.553 1035.23 370.339ZM1037.55 372.216 1038.1 373.43 1036.88 373.981 1036.33 372.767ZM1038.65 374.644 1039.2 375.858 1037.99 376.409 1037.43 375.195ZM1039.75 377.072 1040.3 378.286 1039.09 378.837 1038.54 377.623ZM1040.85 379.5 1041.41 380.714 1040.19 381.265 1039.64 380.051ZM1041.96 381.928 1042.51 383.142 1041.29 383.693 1040.74 382.479ZM1043.06 384.356 1043.61 385.57 1042.4 386.121 1041.85 384.907ZM1044.16 386.784 1044.71 387.998 1043.5 388.549 1042.95 387.335ZM1045.26 389.212 1045.82 390.426 1044.6 390.977 1044.05 389.763ZM1046.37 391.64 1046.92 392.854 1045.7 393.405 1045.15 392.191ZM1047.47 394.068 1048.02 395.282 1046.81 395.833 1046.26 394.619ZM1048.57 396.496 1049.12 397.71 1047.91 398.261 1047.36 397.047ZM1049.68 398.924 1050.23 400.138 1049.01 400.689 1048.46 399.475ZM1050.78 401.352 1051.33 402.566 1050.12 403.117 1049.56 401.903ZM1051.88 403.78 1052.43 404.994 1051.22 405.545 1050.67 404.331ZM1052.98 406.208 1053.54 407.422 1052.32 407.973 1051.77 406.759ZM1054.09 408.636 1054.64 409.85 1053.42 410.401 1052.87 409.187ZM1055.19 411.064 1055.74 412.278 1054.53 412.829 1053.98 411.615ZM1056.29 413.492 1056.84 414.706 1055.63 415.257 1055.08 414.043ZM1057.39 415.92 1057.95 417.134 1056.73 417.685 1056.18 416.471ZM1058.5 418.348 1059.05 419.562 1057.83 420.113 1057.28 418.899ZM1059.6 420.776 1060.15 421.99 1058.94 422.541 1058.39 421.327ZM1060.7 423.204 1061.25 424.418 1060.04 424.969 1059.49 423.755ZM1061.81 425.632 1062.36 426.846 1061.14 427.397 1060.59 426.183ZM1062.91 428.06 1062.94 428.14 1061.73 428.691 1061.69 428.611ZM1065.43 425.547 1065.09 434.485 1058.14 428.856Z" fill="#4472C4"/><path d="M0.19859-0.267718 122.493 90.4487 122.096 90.9842-0.19859 0.267718ZM123.606 86.7095 127.648 94.6883 118.84 93.1347Z" fill="#8FAADC" transform="matrix(1 0 0 -1 524.5 434.188)"/><path d="M0.202049-0.265117 122.548 92.9765 122.144 93.5067-0.202049 0.265117ZM123.71 89.2519 127.648 97.2825 118.861 95.6147Z" fill="#8FAADC" transform="matrix(1 0 0 -1 827.5 435.783)"/><path d="M0.20205-0.265117 122.548 92.9767 122.144 93.5069-0.20205 0.265117ZM123.71 89.2521 127.648 97.2827 118.861 95.6149Z" fill="#8FAADC" transform="matrix(1 0 0 -1 827.5 339.783)"/></g></svg>