<svg width="1280" height="720" xmlns="http://www.w3.org/2000/svg" xmlns:xlink="http://www.w3.org/1999/xlink" overflow="hidden"><defs><clipPath id="clip0"><rect x="0" y="0" width="1280" height="720"/></clipPath></defs><g clip-path="url(#clip0)"><rect x="0" y="0" width="1280" height="720" fill="#FFFFFF"/><rect x="55.5001" y="254.5" width="381" height="430" stroke="#D0CECE" stroke-width="1.33333" stroke-miterlimit="8" fill="none"/><rect x="450.5" y="254.5" width="380" height="430" stroke="#D0CECE" stroke-width="1.33333" stroke-miterlimit="8" fill="none"/><rect x="854.5" y="254.5" width="380" height="432" stroke="#D0CECE" stroke-width="1.33333" stroke-miterlimit="8" fill="none"/><rect x="78.5001" y="488.5" width="129" height="68" stroke="#000000" stroke-linejoin="round" stroke-miterlimit="10" fill="none"/><text font-family="Calibri,Calibri_MSFontService,sans-serif" font-weight="400" font-size="24" transform="translate(88.2081 515)">bank grade<tspan font-size="24" x="46.6667" y="29">G</tspan></text><rect x="260.5" y="474.5" width="113" height="20" stroke="#000000" stroke-width="1.33333" stroke-miterlimit="8" fill="none"/><text font-family="Calibri,Calibri_MSFontService,sans-serif" font-weight="400" font-size="24" transform="translate(298.109 492)">Adv</text><rect x="260.5" y="499.5" width="113" height="20" stroke="#000000" stroke-width="1.33333" stroke-miterlimit="8" fill="none"/><text font-family="Calibri,Calibri_MSFontService,sans-serif" font-weight="400" font-size="24" transform="translate(296.636 517)">Prof</text><rect x="260.5" y="524.5" width="113" height="20" stroke="#000000" stroke-width="1.33333" stroke-miterlimit="8" fill="none"/><text font-family="Calibri,Calibri_MSFontService,sans-serif" font-weight="400" font-size="24" transform="translate(298.003 542)">Dev</text><rect x="260.5" y="549.5" width="113" height="20" stroke="#000000" stroke-width="1.33333" stroke-miterlimit="8" fill="none"/><text font-family="Calibri,Calibri_MSFontService,sans-serif" font-weight="400" font-size="24" transform="translate(298.609 567)">Beg</text><path d="M0.194707-0.270556 47.9283 34.0812 47.5389 34.6223-0.194707 0.270556ZM48.9878 30.3262 53.1447 38.2459 44.3149 36.8196Z" transform="matrix(1 0 0 -1 207.5 522.746)"/><path d="M0.0804453-0.323481 46.7555 11.284 46.5946 11.931-0.0804453 0.323481ZM46.3465 7.40392 53.1447 13.2164 44.4158 15.1675Z" transform="matrix(1 0 0 -1 207.5 522.716)"/><path d="M207.572 522.175 254.209 532.541 254.065 533.192 207.428 522.825ZM253.703 528.673 260.645 534.313 251.967 536.482Z"/><path d="M207.69 522.226 255.356 555.271 254.976 555.818 207.31 522.774ZM256.349 551.498 260.645 559.343 251.791 558.072Z"/><text font-family="Calibri,Calibri_MSFontService,sans-serif" font-weight="400" font-size="24" transform="translate(410.106 193)">TEST 2<tspan font-size="24" x="759.939" y="1">TEST 3</tspan></text><path d="M54 205.167 830.256 205.167 830.256 206.833 54 206.833ZM54 210C51.7909 210 50 208.209 50 206 50 203.791 51.7909 202 54 202 56.2091 202 58 203.791 58 206 58 208.209 56.2091 210 54 210ZM830.256 202C832.465 202 834.256 203.791 834.256 206 834.256 208.209 832.465 210 830.256 210 828.047 210 826.256 208.209 826.256 206 826.256 203.791 828.047 202 830.256 202Z"/><path d="M854 205.167 1236.57 205.167 1236.57 206.833 854 206.833ZM854 210C851.791 210 850 208.209 850 206 850 203.791 851.791 202 854 202 856.209 202 858 203.791 858 206 858 208.209 856.209 210 854 210Z"/><rect x="78.5001" y="376.5" width="129" height="68" stroke="#000000" stroke-linejoin="round" stroke-miterlimit="10" fill="none"/><text font-family="Calibri,Calibri_MSFontService,sans-serif" font-weight="400" font-size="24" transform="translate(88.176 403)">bank grade<tspan font-size="24" x="34.5867" y="29">G+1</tspan></text><rect x="260.5" y="366.5" width="113" height="20" stroke="#000000" stroke-width="1.33333" stroke-miterlimit="8" fill="none"/><text font-family="Calibri,Calibri_MSFontService,sans-serif" font-weight="400" font-size="24" transform="translate(298.109 384)">Adv</text><rect x="260.5" y="391.5" width="113" height="20" stroke="#000000" stroke-width="1.33333" stroke-miterlimit="8" fill="none"/><text font-family="Calibri,Calibri_MSFontService,sans-serif" font-weight="400" font-size="24" transform="translate(296.636 409)">Prof</text><rect x="260.5" y="416.5" width="113" height="20" stroke="#000000" stroke-width="1.33333" stroke-miterlimit="8" fill="none"/><text font-family="Calibri,Calibri_MSFontService,sans-serif" font-weight="400" font-size="24" transform="translate(298.003 434)">Dev</text><rect x="260.5" y="441.5" width="113" height="20" stroke="#000000" stroke-width="1.33333" stroke-miterlimit="8" fill="none"/><text font-family="Calibri,Calibri_MSFontService,sans-serif" font-weight="400" font-size="24" transform="translate(298.609 459)">Beg</text><path d="M0.179291-0.281009 47.7359 30.0613 47.3773 30.6234-0.179291 0.281009ZM48.5841 26.2531 53.1768 33.9282 44.2811 32.9973Z" transform="matrix(1 0 0 -1 207.5 410.428)"/><path d="M0.0550155-0.328762 46.6566 7.46961 46.5465 8.12714-0.0550155 0.328762ZM45.9467 3.63317 53.1768 8.89869 44.6263 11.5235Z" transform="matrix(1 0 0 -1 207.5 410.399)"/><path d="M207.597 410.181 254.394 424.377 254.2 425.015 207.403 410.819ZM254.182 420.481 260.677 426.631 251.86 428.136Z"/><path d="M207.704 410.236 255.609 447.316 255.201 447.843 207.296 410.764ZM256.799 443.601 260.677 451.66 251.902 449.927Z"/><text font-family="Cambria Math,Cambria Math_MSFontService,sans-serif" font-weight="400" font-size="16" transform="translate(205.154 370)">ğœƒ<tspan font-size="12" x="8.06667" y="4">1</tspan><tspan font-size="16" x="1.96001" y="110">ğœƒ</tspan><tspan font-size="12" x="10.0267" y="113">1</tspan></text><rect x="486.5" y="488.5" width="129" height="68" stroke="#000000" stroke-linejoin="round" stroke-miterlimit="10" fill="none"/><text font-family="Calibri,Calibri_MSFontService,sans-serif" font-weight="400" font-size="24" transform="translate(495.985 515)">bank grade<tspan font-size="24" x="46.6667" y="29">G</tspan></text><rect x="668.5" y="474.5" width="113" height="20" stroke="#000000" stroke-width="1.33333" stroke-miterlimit="8" fill="none"/><text font-family="Calibri,Calibri_MSFontService,sans-serif" font-weight="400" font-size="24" transform="translate(705.886 492)">Adv</text><rect x="668.5" y="499.5" width="113" height="20" stroke="#000000" stroke-width="1.33333" stroke-miterlimit="8" fill="none"/><text font-family="Calibri,Calibri_MSFontService,sans-serif" font-weight="400" font-size="24" transform="translate(704.413 517)">Prof</text><rect x="668.5" y="524.5" width="113" height="20" stroke="#000000" stroke-width="1.33333" stroke-miterlimit="8" fill="none"/><text font-family="Calibri,Calibri_MSFontService,sans-serif" font-weight="400" font-size="24" transform="translate(705.779 542)">Dev</text><rect x="668.5" y="549.5" width="113" height="20" stroke="#000000" stroke-width="1.33333" stroke-miterlimit="8" fill="none"/><text font-family="Calibri,Calibri_MSFontService,sans-serif" font-weight="400" font-size="24" transform="translate(706.386 567)">Beg</text><path d="M0.194707-0.270556 47.9283 34.0812 47.5389 34.6223-0.194707 0.270556ZM48.9878 30.3262 53.1447 38.2459 44.3149 36.8196Z" transform="matrix(1 0 0 -1 615.5 522.746)"/><path d="M0.0804453-0.323481 46.7555 11.284 46.5946 11.931-0.0804453 0.323481ZM46.3465 7.40392 53.1447 13.2164 44.4158 15.1675Z" transform="matrix(1 0 0 -1 615.5 522.716)"/><path d="M615.572 522.175 662.209 532.541 662.065 533.192 615.428 522.825ZM661.703 528.673 668.645 534.313 659.967 536.482Z"/><path d="M615.69 522.226 663.356 555.271 662.976 555.818 615.31 522.774ZM664.349 551.498 668.645 559.343 659.791 558.072Z"/><rect x="486.5" y="598.5" width="129" height="68" stroke="#000000" stroke-linejoin="round" stroke-miterlimit="10" fill="none"/><text font-family="Calibri,Calibri_MSFontService,sans-serif" font-weight="400" font-size="24" transform="translate(495.985 624)">bank grade<tspan font-size="24" x="36.92" y="29">G</tspan><tspan font-size="24" x="52.0866" y="29">-</tspan><tspan font-size="24" x="59.42" y="29">1</tspan></text><rect x="668.5" y="583.5" width="113" height="21" stroke="#000000" stroke-width="1.33333" stroke-miterlimit="8" fill="none"/><text font-family="Calibri,Calibri_MSFontService,sans-serif" font-weight="400" font-size="24" transform="translate(705.886 601)">Adv</text><rect x="668.5" y="608.5" width="113" height="21" stroke="#000000" stroke-width="1.33333" stroke-miterlimit="8" fill="none"/><text font-family="Calibri,Calibri_MSFontService,sans-serif" font-weight="400" font-size="24" transform="translate(704.413 626)">Prof</text><rect x="668.5" y="633.5" width="113" height="21" stroke="#000000" stroke-width="1.33333" stroke-miterlimit="8" fill="none"/><text font-family="Calibri,Calibri_MSFontService,sans-serif" font-weight="400" font-size="24" transform="translate(705.779 651)">Dev</text><rect x="668.5" y="658.5" width="113" height="21" stroke="#000000" stroke-width="1.33333" stroke-miterlimit="8" fill="none"/><text font-family="Calibri,Calibri_MSFontService,sans-serif" font-weight="400" font-size="24" transform="translate(706.386 676)">Beg</text><path d="M0.194707-0.270556 47.9283 34.0812 47.5389 34.6223-0.194707 0.270556ZM48.9878 30.3262 53.1447 38.2459 44.3149 36.8196Z" transform="matrix(1 0 0 -1 615.5 631.746)"/><path d="M0.0804453-0.323481 46.7555 11.284 46.5946 11.931-0.0804453 0.323481ZM46.3465 7.40392 53.1447 13.2164 44.4158 15.1675Z" transform="matrix(1 0 0 -1 615.5 631.716)"/><path d="M615.572 632.175 662.209 642.541 662.065 643.192 615.428 632.825ZM661.703 638.673 668.645 644.313 659.967 646.482Z"/><path d="M615.69 632.226 663.356 665.271 662.976 665.818 615.31 632.774ZM664.349 661.498 668.645 669.343 659.791 668.072Z"/><rect x="486.5" y="376.5" width="129" height="68" stroke="#000000" stroke-linejoin="round" stroke-miterlimit="10" fill="none"/><text font-family="Calibri,Calibri_MSFontService,sans-serif" font-weight="400" font-size="24" transform="translate(495.953 403)">bank grade<tspan font-size="24" x="34.5867" y="29">G+1</tspan></text><rect x="668.5" y="366.5" width="113" height="20" stroke="#000000" stroke-width="1.33333" stroke-miterlimit="8" fill="none"/><text font-family="Calibri,Calibri_MSFontService,sans-serif" font-weight="400" font-size="24" transform="translate(705.886 384)">Adv</text><rect x="668.5" y="391.5" width="113" height="20" stroke="#000000" stroke-width="1.33333" stroke-miterlimit="8" fill="none"/><text font-family="Calibri,Calibri_MSFontService,sans-serif" font-weight="400" font-size="24" transform="translate(704.413 409)">Prof</text><rect x="668.5" y="416.5" width="113" height="20" stroke="#000000" stroke-width="1.33333" stroke-miterlimit="8" fill="none"/><text font-family="Calibri,Calibri_MSFontService,sans-serif" font-weight="400" font-size="24" transform="translate(705.779 434)">Dev</text><rect x="668.5" y="441.5" width="113" height="20" stroke="#000000" stroke-width="1.33333" stroke-miterlimit="8" fill="none"/><text font-family="Calibri,Calibri_MSFontService,sans-serif" font-weight="400" font-size="24" transform="translate(706.386 459)">Beg</text><path d="M0.179291-0.281009 47.7359 30.0613 47.3773 30.6234-0.179291 0.281009ZM48.5841 26.2531 53.1768 33.9282 44.2811 32.9973Z" transform="matrix(1 0 0 -1 615.5 410.428)"/><path d="M0.0550155-0.328762 46.6566 7.46961 46.5465 8.12714-0.0550155 0.328762ZM45.9467 3.63317 53.1768 8.89869 44.6263 11.5235Z" transform="matrix(1 0 0 -1 615.5 410.399)"/><path d="M615.597 410.181 662.394 424.377 662.201 425.015 615.403 410.819ZM662.182 420.481 668.677 426.631 659.86 428.136Z"/><path d="M615.704 410.236 663.609 447.316 663.201 447.843 615.296 410.764ZM664.799 443.601 668.677 451.66 659.902 449.927Z"/><rect x="485.5" y="275.5" width="129" height="67" stroke="#000000" stroke-linejoin="round" stroke-miterlimit="10" fill="none"/><text font-family="Calibri,Calibri_MSFontService,sans-serif" font-weight="400" font-size="24" transform="translate(495.547 301)">bank grade<tspan font-size="24" x="34.5867" y="29">G+2</tspan></text><rect x="668.5" y="262.5" width="113" height="21" stroke="#000000" stroke-width="1.33333" stroke-miterlimit="8" fill="none"/><text font-family="Calibri,Calibri_MSFontService,sans-serif" font-weight="400" font-size="24" transform="translate(705.886 280)">Adv</text><rect x="668.5" y="287.5" width="113" height="21" stroke="#000000" stroke-width="1.33333" stroke-miterlimit="8" fill="none"/><text font-family="Calibri,Calibri_MSFontService,sans-serif" font-weight="400" font-size="24" transform="translate(704.413 305)">Prof</text><rect x="668.5" y="312.5" width="113" height="21" stroke="#000000" stroke-width="1.33333" stroke-miterlimit="8" fill="none"/><text font-family="Calibri,Calibri_MSFontService,sans-serif" font-weight="400" font-size="24" transform="translate(705.779 330)">Dev</text><rect x="668.5" y="337.5" width="113" height="21" stroke="#000000" stroke-width="1.33333" stroke-miterlimit="8" fill="none"/><text font-family="Calibri,Calibri_MSFontService,sans-serif" font-weight="400" font-size="24" transform="translate(706.386 355)">Beg</text><path d="M0.186882-0.276019 48.2492 32.2652 47.8755 32.8173-0.186882 0.276019ZM49.2008 28.4815 53.5827 36.2788 44.7156 35.1059Z" transform="matrix(1 0 0 -1 614.5 308.779)"/><path d="M0.0684881-0.326222 47.1267 9.55336 46.9898 10.2058-0.0684881 0.326222ZM46.5752 5.69097 53.5827 11.2493 44.9315 13.5203Z" transform="matrix(1 0 0 -1 614.5 308.749)"/><path d="M614.583 309.177 661.709 321.297 661.543 321.943 614.417 309.823ZM661.331 317.414 668.083 323.28 659.339 325.162Z"/><path d="M614.696 309.23 662.879 344.129 662.488 344.669 614.305 309.77ZM663.95 340.378 668.083 348.31 659.257 346.857Z"/><text font-family="Cambria Math,Cambria Math_MSFontService,sans-serif" font-weight="400" font-size="16" transform="translate(615.357 269)">ğœƒ<tspan font-size="12" x="8.44" y="3">2</tspan><tspan font-size="16" x="-44.8827" y="101">ğœƒ</tspan><tspan font-size="12" x="-36.4427" y="105">2</tspan><tspan font-family="Calibri,Calibri_MSFontService,sans-serif" font-size="16" x="-25.276" y="101">or </tspan><tspan font-size="16" x="-7.60938" y="101">ğœƒ</tspan><tspan font-size="12" x="0.457336" y="105">1</tspan><tspan font-size="12" x="7.29065" y="105">+</tspan><tspan font-size="12" x="15.7906" y="105">2</tspan><tspan font-size="16" x="-3.26666" y="319">ğœƒ</tspan><tspan font-size="12" x="5.17334" y="322">2</tspan></text><rect x="894.5" y="489.5" width="128" height="67" stroke="#000000" stroke-linejoin="round" stroke-miterlimit="10" fill="none"/><text font-family="Calibri,Calibri_MSFontService,sans-serif" font-weight="400" font-size="24" transform="translate(903.762 515)">bank grade<tspan font-size="24" x="46.6667" y="29">G</tspan></text><rect x="894.5" y="376.5" width="128" height="68" stroke="#000000" stroke-linejoin="round" stroke-miterlimit="10" fill="none"/><text font-family="Calibri,Calibri_MSFontService,sans-serif" font-weight="400" font-size="24" transform="translate(903.73 403)">bank grade<tspan font-size="24" x="34.5867" y="29">G+1</tspan></text><rect x="893.5" y="275.5" width="129" height="68" stroke="#000000" stroke-linejoin="round" stroke-miterlimit="10" fill="none"/><text font-family="Calibri,Calibri_MSFontService,sans-serif" font-weight="400" font-size="24" transform="translate(903.324 302)">bank grade<tspan font-size="24" x="34.5867" y="29">G+2</tspan></text><path d="M0.172095-0.285472 106.317 63.7034 105.973 64.2743-0.172095 0.285472ZM107.068 59.8748 111.854 67.4308 102.938 66.7261Z" transform="matrix(1 0 0 -1 373.5 376.931)"/><path d="M373.526 401.168 479.141 409.54 479.088 410.204 373.474 401.832ZM478.102 405.779 485.76 410.399 477.469 413.754Z"/><path d="M0.0474101-0.329945 105.709 14.8527 105.614 15.5126-0.0474101 0.329945ZM104.911 11.0336 112.26 16.1308 103.773 18.9523Z" transform="matrix(1 0 0 -1 373.5 426.631)"/><path d="M373.679 451.219 480.34 518.827 479.983 519.39 373.322 451.782ZM481.177 515.017 485.793 522.678 476.894 521.773Z"/><path d="M0.183615-0.278202 106.88 70.142 106.513 70.6984-0.183615 0.278202ZM107.787 66.3473 112.26 74.0925 103.38 73.0242Z" transform="matrix(1 0 0 -1 373.5 484.593)"/><path d="M373.539 509.169 479.21 521.606 479.133 522.268 373.461 509.831ZM478.315 517.809 485.793 522.716 477.38 525.754Z"/><path d="M0.0348741-0.331504 105.697 10.7841 105.628 11.4471-0.0348741 0.331504ZM104.755 6.9981 112.292 11.8131 103.918 14.9542Z" transform="matrix(1 0 0 -1 373.5 534.313)"/><path d="M373.681 559.22 480.374 628.159 480.012 628.719 373.319 559.78ZM481.244 624.356 485.793 632.057 476.902 631.075Z"/><path d="M0.264219-0.203223 108.492 140.509 107.964 140.915-0.264219 0.203223ZM110.586 137.216 112.292 145.996 104.245 142.094Z" fill="#FF0000" transform="matrix(1 0 0 -1 781.5 668.496)"/><path d="M0.244298-0.22678 108.001 115.854 107.513 116.308-0.244298 0.22678ZM109.781 112.382 112.292 120.967 103.918 117.825Z" fill="#FF0000" transform="matrix(1 0 0 -1 781.5 643.467)"/><path d="M0.216522-0.253435 107.44 91.3533 107.007 91.8602-0.216522 0.253435ZM108.808 87.6995 112.292 95.9372 103.612 93.7819Z" fill="#FF0000" transform="matrix(1 0 0 -1 781.5 618.437)"/><path d="M0.177973-0.281845 106.834 67.0665 106.478 67.6302-0.177973 0.281845ZM107.664 63.2542 112.292 70.9077 103.393 70.0185Z" fill="#FF0000" transform="matrix(1 0 0 -1 781.5 593.408)"/><path d="M0.103287-0.316927 106.057 34.2137 105.851 34.8476-0.103287 0.316927ZM105.926 30.3144 112.292 36.5964 103.447 37.9207Z" fill="#FF0000" transform="matrix(1 0 0 -1 781.5 559.096)"/><path d="M0.0341547-0.331579 105.695 10.5522 105.627 11.2153-0.0341547 0.331579ZM104.744 6.76816 112.292 11.5668 103.925 14.7261Z" transform="matrix(1 0 0 -1 781.5 534.067)"/><path d="M781.54 509.169 887.213 521.838 887.134 522.5 781.46 509.831ZM886.326 518.039 893.793 522.963 885.373 525.982Z"/><path d="M0.183189-0.278483 106.874 69.9039 106.507 70.4609-0.183189 0.278483ZM107.775 66.1078 112.26 73.8462 103.379 72.7914Z" transform="matrix(1 0 0 -1 781.5 484.346)"/><path d="M781.679 451.219 888.346 519.065 887.988 519.628 781.321 451.781ZM889.189 515.256 893.793 522.924 884.896 522.006Z"/><path d="M0.0467005-0.330046 105.706 14.6205 105.613 15.2806-0.0467005 0.330046ZM104.9 10.8032 112.26 15.8845 103.779 18.7242Z" transform="matrix(1 0 0 -1 781.5 426.385)"/><path d="M781.527 401.168 887.143 409.772 887.089 410.436 781.473 401.832ZM886.112 406.009 893.76 410.645 885.462 413.982Z"/><path d="M0.171633-0.28575 106.311 63.4661 105.968 64.0376-0.171633 0.28575ZM107.056 59.6363 111.854 67.1845 102.937 66.4943Z" transform="matrix(1 0 0 -1 781.5 376.685)"/><path d="M781.663 347.209 888.105 406.75 887.779 407.332 781.337 347.791ZM888.731 402.899 893.76 410.296 884.826 409.881Z"/><path d="M0.0400397-0.33092 105.276 12.4021 105.196 13.064-0.0400397 0.33092ZM104.393 8.60187 111.854 13.5339 103.432 16.5439Z" transform="matrix(1 0 0 -1 781.5 323.034)"/><path d="M781.534 297.168 886.757 307.983 886.689 308.646 781.466 297.832ZM885.805 304.199 893.355 308.996 884.988 312.157Z"/><path d="M781.604 272.183 887.121 306.639 886.914 307.273 781.397 272.817ZM886.991 302.74 893.355 309.025 884.508 310.344Z" fill="#FF0000"/><text fill="#FF0000" font-family="Calibri,Calibri_MSFontService,sans-serif" font-weight="700" font-size="16" transform="translate(754.417 247)">(R0, R3)<tspan fill="#000000" font-weight="400" font-size="24" x="-561.193" y="-8">Phase 1</tspan><tspan fill="#000000" font-weight="400" font-size="24" x="-156.066" y="-8">Phase 2</tspan><tspan fill="#000000" font-weight="400" font-size="24" x="252.823" y="-8">Phase 1</tspan><tspan font-size="16" x="27.7318" y="326">(R2)</tspan><tspan font-size="16" x="113.581" y="337">(R1)</tspan><tspan fill="#000000" font-family="Cambria Math,Cambria Math_MSFontService,sans-serif" font-weight="400" font-size="16" x="-185.522" y="234">ğœƒ</tspan><tspan fill="#000000" font-family="Cambria Math,Cambria Math_MSFontService,sans-serif" font-weight="400" font-size="12" x="-177.082" y="237">2</tspan><tspan fill="#000000" font-weight="400" font-size="16" x="-165.915" y="234">or </tspan><tspan fill="#000000" font-family="Cambria Math,Cambria Math_MSFontService,sans-serif" font-weight="400" font-size="16" x="-148.248" y="234">ğœƒ</tspan><tspan fill="#000000" font-family="Cambria Math,Cambria Math_MSFontService,sans-serif" font-weight="400" font-size="12" x="-140.182" y="237">1</tspan><tspan fill="#000000" font-family="Cambria Math,Cambria Math_MSFontService,sans-serif" font-weight="400" font-size="12" x="-133.348" y="237">+</tspan><tspan fill="#000000" font-family="Cambria Math,Cambria Math_MSFontService,sans-serif" font-weight="400" font-size="12" x="-124.848" y="237">2</tspan></text></g></svg>