<svg width="1280" height="720" xmlns="http://www.w3.org/2000/svg" xmlns:xlink="http://www.w3.org/1999/xlink" overflow="hidden"><defs><clipPath id="clip0"><rect x="0" y="0" width="1280" height="720"/></clipPath></defs><g clip-path="url(#clip0)"><rect x="0" y="0" width="1280" height="720" fill="#FFFFFF"/><rect x="55.5001" y="254.5" width="381" height="430" stroke="#D0CECE" stroke-width="1.33333" stroke-miterlimit="8" fill="none"/><rect x="450.5" y="254.5" width="380" height="430" stroke="#D0CECE" stroke-width="1.33333" stroke-miterlimit="8" fill="none"/><text font-family="Calibri,Calibri_MSFontService,sans-serif" font-weight="400" font-size="24" transform="translate(410.106 193)">TEST 3</text><path d="M54 205.167 830.256 205.167 830.256 206.833 54 206.833ZM54 210C51.7909 210 50 208.209 50 206 50 203.791 51.7909 202 54 202 56.2091 202 58 203.791 58 206 58 208.209 56.2091 210 54 210ZM830.256 202C832.465 202 834.256 203.791 834.256 206 834.256 208.209 832.465 210 830.256 210 828.047 210 826.256 208.209 826.256 206 826.256 203.791 828.047 202 830.256 202Z"/><rect x="93.5001" y="509.5" width="129" height="68" stroke="#000000" stroke-linejoin="round" stroke-miterlimit="10" fill="none"/><text font-family="Calibri,Calibri_MSFontService,sans-serif" font-weight="400" font-size="24" transform="translate(103.337 536)">bank grade<tspan font-size="24" x="46.6667" y="29">G</tspan></text><rect x="275.5" y="495.5" width="114" height="21" stroke="#000000" stroke-width="1.33333" stroke-miterlimit="8" fill="none"/><text font-family="Calibri,Calibri_MSFontService,sans-serif" font-weight="400" font-size="24" transform="translate(313.239 513)">Adv</text><rect x="275.5" y="520.5" width="114" height="21" stroke="#000000" stroke-width="1.33333" stroke-miterlimit="8" fill="none"/><text font-family="Calibri,Calibri_MSFontService,sans-serif" font-weight="400" font-size="24" transform="translate(311.765 538)">Prof</text><rect x="275.5" y="545.5" width="114" height="21" stroke="#000000" stroke-width="1.33333" stroke-miterlimit="8" fill="none"/><text font-family="Calibri,Calibri_MSFontService,sans-serif" font-weight="400" font-size="24" transform="translate(313.132 563)">Dev</text><rect x="275.5" y="570.5" width="114" height="21" stroke="#000000" stroke-width="1.33333" stroke-miterlimit="8" fill="none"/><text font-family="Calibri,Calibri_MSFontService,sans-serif" font-weight="400" font-size="24" transform="translate(313.738 588)">Beg</text><path d="M0.194707-0.270556 47.9283 34.0812 47.5389 34.6223-0.194707 0.270556ZM48.9878 30.3262 53.1447 38.2459 44.3149 36.8196Z" transform="matrix(1 0 0 -1 222.5 543.746)"/><path d="M0.0804453-0.323481 46.7555 11.284 46.5946 11.931-0.0804453 0.323481ZM46.3465 7.40392 53.1447 13.2164 44.4158 15.1675Z" transform="matrix(1 0 0 -1 222.5 543.716)"/><path d="M222.572 543.175 269.209 553.541 269.065 554.192 222.428 543.825ZM268.703 549.673 275.645 555.313 266.967 557.482Z"/><path d="M222.69 543.226 270.356 576.271 269.976 576.818 222.31 543.774ZM271.349 572.498 275.645 580.343 266.791 579.072Z"/><rect x="93.5001" y="397.5" width="129" height="68" stroke="#000000" stroke-linejoin="round" stroke-miterlimit="10" fill="none"/><text font-family="Calibri,Calibri_MSFontService,sans-serif" font-weight="400" font-size="24" transform="translate(103.305 424)">bank grade<tspan font-size="24" x="34.5867" y="29">G+1</tspan></text><rect x="275.5" y="387.5" width="114" height="21" stroke="#000000" stroke-width="1.33333" stroke-miterlimit="8" fill="none"/><text font-family="Calibri,Calibri_MSFontService,sans-serif" font-weight="400" font-size="24" transform="translate(313.239 405)">Adv</text><rect x="275.5" y="412.5" width="114" height="21" stroke="#000000" stroke-width="1.33333" stroke-miterlimit="8" fill="none"/><text font-family="Calibri,Calibri_MSFontService,sans-serif" font-weight="400" font-size="24" transform="translate(311.765 430)">Prof</text><rect x="275.5" y="437.5" width="114" height="21" stroke="#000000" stroke-width="1.33333" stroke-miterlimit="8" fill="none"/><text font-family="Calibri,Calibri_MSFontService,sans-serif" font-weight="400" font-size="24" transform="translate(313.132 455)">Dev</text><rect x="275.5" y="462.5" width="114" height="21" stroke="#000000" stroke-width="1.33333" stroke-miterlimit="8" fill="none"/><text font-family="Calibri,Calibri_MSFontService,sans-serif" font-weight="400" font-size="24" transform="translate(313.738 480)">Beg</text><path d="M0.179291-0.281009 47.7359 30.0613 47.3773 30.6234-0.179291 0.281009ZM48.5841 26.2531 53.1768 33.9282 44.2811 32.9973Z" transform="matrix(1 0 0 -1 222.5 431.428)"/><path d="M0.0550155-0.328762 46.6566 7.46961 46.5465 8.12714-0.0550155 0.328762ZM45.9467 3.63317 53.1768 8.89869 44.6263 11.5235Z" transform="matrix(1 0 0 -1 222.5 431.399)"/><path d="M222.597 431.181 269.394 445.377 269.201 446.015 222.403 431.819ZM269.182 441.481 275.677 447.631 266.86 449.136Z"/><path d="M222.704 431.236 270.609 468.316 270.201 468.843 222.296 431.764ZM271.799 464.601 275.677 472.66 266.902 470.927Z"/><rect x="93.5001" y="296.5" width="129" height="68" stroke="#000000" stroke-linejoin="round" stroke-miterlimit="10" fill="none"/><text font-family="Calibri,Calibri_MSFontService,sans-serif" font-weight="400" font-size="24" transform="translate(102.899 323)">bank grade<tspan font-size="24" x="34.5867" y="29">G+2</tspan></text><rect x="275.5" y="283.5" width="114" height="21" stroke="#000000" stroke-width="1.33333" stroke-miterlimit="8" fill="none"/><text font-family="Calibri,Calibri_MSFontService,sans-serif" font-weight="400" font-size="24" transform="translate(313.239 301)">Adv</text><rect x="275.5" y="308.5" width="114" height="21" stroke="#000000" stroke-width="1.33333" stroke-miterlimit="8" fill="none"/><text font-family="Calibri,Calibri_MSFontService,sans-serif" font-weight="400" font-size="24" transform="translate(311.765 326)">Prof</text><rect x="275.5" y="333.5" width="114" height="21" stroke="#000000" stroke-width="1.33333" stroke-miterlimit="8" fill="none"/><text font-family="Calibri,Calibri_MSFontService,sans-serif" font-weight="400" font-size="24" transform="translate(313.132 351)">Dev</text><rect x="275.5" y="358.5" width="114" height="21" stroke="#000000" stroke-width="1.33333" stroke-miterlimit="8" fill="none"/><text font-family="Calibri,Calibri_MSFontService,sans-serif" font-weight="400" font-size="24" transform="translate(313.738 376)">Beg</text><path d="M0.186882-0.276019 48.2492 32.2652 47.8755 32.8173-0.186882 0.276019ZM49.2008 28.4815 53.5827 36.2788 44.7156 35.1059Z" transform="matrix(1 0 0 -1 222.5 329.779)"/><path d="M0.0684881-0.326222 47.1267 9.55336 46.9898 10.2058-0.0684881 0.326222ZM46.5752 5.69097 53.5827 11.2493 44.9315 13.5203Z" transform="matrix(1 0 0 -1 222.5 329.749)"/><path d="M222.583 330.177 269.709 342.297 269.543 342.943 222.417 330.823ZM269.331 338.414 276.083 344.28 267.339 346.162Z"/><path d="M222.696 330.23 270.879 365.129 270.488 365.669 222.305 330.77ZM271.95 361.378 276.083 369.31 267.257 367.857Z"/><text font-family="Cambria Math,Cambria Math_MSFontService,sans-serif" font-weight="400" font-size="16" transform="translate(219.63 290)">ğœƒ<tspan font-size="12" x="8.06667" y="3">1</tspan><tspan font-size="16" x="0" y="102">ğœƒ</tspan><tspan font-size="12" x="8.06667" y="105">1</tspan><tspan font-size="16" x="0" y="211">ğœƒ</tspan><tspan font-size="12" x="8.06667" y="214">1</tspan></text><rect x="491.5" y="502.5" width="129" height="68" stroke="#000000" stroke-linejoin="round" stroke-miterlimit="10" fill="none"/><text font-family="Calibri,Calibri_MSFontService,sans-serif" font-weight="400" font-size="24" transform="translate(501.391 529)">bank grade<tspan font-size="24" x="46.6667" y="29">G</tspan></text><rect x="492.5" y="397.5" width="129" height="68" stroke="#000000" stroke-linejoin="round" stroke-miterlimit="10" fill="none"/><text font-family="Calibri,Calibri_MSFontService,sans-serif" font-weight="400" font-size="24" transform="translate(502.612 424)">bank grade<tspan font-size="24" x="34.5867" y="29">G+1</tspan></text><rect x="491.5" y="292.5" width="129" height="68" stroke="#000000" stroke-linejoin="round" stroke-miterlimit="10" fill="none"/><text font-family="Calibri,Calibri_MSFontService,sans-serif" font-weight="400" font-size="24" transform="translate(501.391 319)">bank grade<tspan font-size="24" x="34.5867" y="29">G+2</tspan></text><rect x="492.5" y="607.5" width="129" height="68" stroke="#000000" stroke-linejoin="round" stroke-miterlimit="10" fill="none"/><text font-family="Calibri,Calibri_MSFontService,sans-serif" font-weight="400" font-size="24" transform="translate(502.612 634)">bank grade<tspan font-size="24" x="36.92" y="29">G</tspan><tspan font-size="24" x="52.0867" y="29">-</tspan><tspan font-size="24" x="59.42" y="29">1</tspan></text><path d="M389.602 293.183 485.821 323.94 485.618 324.576 389.399 293.818ZM485.667 320.042 492.069 326.288 483.231 327.662Z" fill="#FF0000"/><path d="M389.525 318.168 485.447 325.423 485.397 326.088 389.475 318.832ZM484.394 321.666 492.069 326.258 483.79 329.644Z"/><path d="M0.0553493-0.328706 96.0505 15.8355 95.9398 16.4929-0.0553493 0.328706ZM95.3445 11.9983 102.569 17.2712 94.0161 19.8873Z" transform="matrix(1 0 0 -1 389.5 343.771)"/><path d="M389.672 369.215 487.757 428.485 487.412 429.055 389.328 369.785ZM488.512 424.657 493.29 432.218 484.374 431.504Z"/><path d="M0.189578-0.274174 97.2753 66.856 96.8961 67.4044-0.189578 0.274174ZM98.264 63.0818 102.569 70.9218 93.7141 69.662Z" transform="matrix(1 0 0 -1 389.5 397.422)"/><path d="M389.529 422.168 486.678 430.655 486.62 431.319 389.471 422.832ZM485.669 426.886 493.29 431.568 484.972 434.856Z"/><path d="M0.050668-0.32946 97.2516 14.6192 97.1502 15.2781-0.050668 0.32946ZM96.4911 10.7924 103.79 15.962 95.2751 18.6995Z" transform="matrix(1 0 0 -1 389.5 447.462)"/><path d="M389.677 472.217 486.59 532.714 486.237 533.28 389.324 472.783ZM487.401 528.898 492.069 536.527 483.165 535.684Z"/><path d="M0.193378-0.271507 98.5533 69.7846 98.1666 70.3276-0.193378 0.271507ZM99.5945 66.0245 103.79 73.9237 94.9534 72.5407Z" transform="matrix(1 0 0 -1 389.5 505.424)"/><path d="M389.52 530.167 485.434 535.839 485.394 536.505 389.48 530.833ZM484.319 532.1 492.069 536.566 483.847 540.086Z"/><path d="M0.0606025-0.327778 96.0742 17.4241 95.953 18.0796-0.0606025 0.327778ZM95.4297 13.5761 102.569 18.9639 93.9752 21.4428Z" transform="matrix(1 0 0 -1 389.5 555.464)"/><path d="M389.669 580.213 487.712 637.859 487.374 638.434 389.331 580.787ZM488.421 634.022 493.29 641.525 484.367 640.919Z"/><text fill="#FF0000" font-family="Calibri,Calibri_MSFontService,sans-serif" font-weight="700" font-size="16" transform="translate(398.433 284)">(R0)<tspan fill="#000000" font-weight="400" font-size="24" x="-205.208" y="-45">Phase 1</tspan><tspan fill="#000000" font-weight="400" font-size="24" x="199.918" y="-45">Phase 2</tspan></text></g></svg>