<svg width="1280" height="720" xmlns="http://www.w3.org/2000/svg" xmlns:xlink="http://www.w3.org/1999/xlink" overflow="hidden"><defs><clipPath id="clip0"><rect x="0" y="0" width="1280" height="720"/></clipPath></defs><g clip-path="url(#clip0)"><rect x="0" y="0" width="1280" height="720" fill="#FFFFFF"/><rect x="55.5001" y="254.5" width="381" height="430" stroke="#D0CECE" stroke-width="1.33333" stroke-miterlimit="8" fill="none"/><rect x="450.5" y="254.5" width="380" height="430" stroke="#D0CECE" stroke-width="1.33333" stroke-miterlimit="8" fill="none"/><rect x="854.5" y="254.5" width="380" height="432" stroke="#D0CECE" stroke-width="1.33333" stroke-miterlimit="8" fill="none"/><rect x="78.5001" y="432.5" width="129" height="68" stroke="#000000" stroke-linejoin="round" stroke-miterlimit="10" fill="none"/><text font-family="Calibri,Calibri_MSFontService,sans-serif" font-weight="400" font-size="24" transform="translate(88.2081 459)">bank grade<tspan font-size="24" x="46.6667" y="29">G</tspan></text><rect x="260.5" y="415.5" width="113" height="20" stroke="#000000" stroke-width="1.33333" stroke-miterlimit="8" fill="none"/><text font-family="Calibri,Calibri_MSFontService,sans-serif" font-weight="400" font-size="24" transform="translate(298.109 433)">Adv</text><rect x="260.5" y="442.5" width="113" height="20" stroke="#000000" stroke-width="1.33333" stroke-miterlimit="8" fill="none"/><text font-family="Calibri,Calibri_MSFontService,sans-serif" font-weight="400" font-size="24" transform="translate(296.636 460)">Prof</text><rect x="260.5" y="469.5" width="113" height="20" stroke="#000000" stroke-width="1.33333" stroke-miterlimit="8" fill="none"/><text font-family="Calibri,Calibri_MSFontService,sans-serif" font-weight="400" font-size="24" transform="translate(298.003 487)">Dev</text><rect x="260.5" y="496.5" width="113" height="20" stroke="#000000" stroke-width="1.33333" stroke-miterlimit="8" fill="none"/><text font-family="Calibri,Calibri_MSFontService,sans-serif" font-weight="400" font-size="24" transform="translate(298.609 514)">Beg<tspan font-size="24" x="-105.384" y="-275">Phase 1</tspan></text><path d="M0.204372-0.263331 48.0824 36.8951 47.6737 37.4218-0.204372 0.263331ZM49.2772 33.181 53.1447 41.2459 44.3723 39.5009Z" transform="matrix(1 0 0 -1 207.5 466.746)"/><path d="M0.0861391-0.322011 46.7906 12.1716 46.6183 12.8156-0.0861391 0.322011ZM46.4501 8.28491 53.1447 14.2164 44.3827 16.0132Z" transform="matrix(1 0 0 -1 207.5 466.716)"/><path d="M207.578 466.176 254.242 477.427 254.086 478.075 207.422 466.824ZM253.805 473.55 260.645 479.313 251.93 481.327Z"/><path d="M207.7 466.233 255.511 502.077 255.111 502.611 207.3 466.767ZM256.643 498.344 260.645 506.343 251.844 504.744Z"/><rect x="477.5" y="432.5" width="129" height="68" stroke="#000000" stroke-linejoin="round" stroke-miterlimit="10" fill="none"/><text font-family="Calibri,Calibri_MSFontService,sans-serif" font-weight="400" font-size="24" transform="translate(487.344 459)">bank grade<tspan font-size="24" x="46.6667" y="29">G</tspan></text><rect x="477.5" y="299.5" width="129" height="68" stroke="#000000" stroke-linejoin="round" stroke-miterlimit="10" fill="none"/><text font-family="Calibri,Calibri_MSFontService,sans-serif" font-weight="400" font-size="24" transform="translate(487.344 326)">bank grade<tspan font-size="24" x="34.5867" y="29">G+1</tspan></text><rect x="477.5" y="565.5" width="129" height="68" stroke="#000000" stroke-linejoin="round" stroke-miterlimit="10" fill="none"/><text font-family="Calibri,Calibri_MSFontService,sans-serif" font-weight="400" font-size="24" transform="translate(487.344 592)">bank grade<tspan font-size="24" x="36.92" y="29">G</tspan><tspan font-size="24" x="52.0867" y="29">-</tspan><tspan font-size="24" x="59.42" y="29">1</tspan></text><path d="M0.221158-0.2494 98.8851 87.2422 98.4428 87.741-0.221158 0.2494ZM100.32 83.6142 103.652 91.9147 95.0125 89.5997Z" transform="matrix(1 0 0 -1 373.5 425.415)"/><path d="M373.545 452.17 470.592 465.48 470.502 466.141 373.455 452.83ZM469.77 461.666 477.152 466.716 468.683 469.592Z"/><path d="M0.0408943-0.330815 97.0767 11.6644 96.9949 12.3261-0.0408943 0.330815ZM96.2031 7.86187 103.652 12.8131 95.2217 15.8014Z" transform="matrix(1 0 0 -1 373.5 479.313)"/><path d="M373.723 506.252 472.421 595.11 471.975 595.605 373.277 506.748ZM473.883 591.492 477.152 599.818 468.53 597.438Z"/><text font-family="Calibri,Calibri_MSFontService,sans-serif" font-weight="400" font-size="24" transform="translate(598.351 239)">Phase 2</text><path d="M0.201097-0.265841 50.0545 37.4461 49.6523 37.9778-0.201097 0.265841ZM51.2032 33.7174 55.1702 41.7339 46.3769 40.0976Z" transform="matrix(1 0 0 -1 606.5 333.234)"/><path d="M0.0858456-0.322089 48.8143 12.6654 48.6426 13.3095-0.0858456 0.322089ZM48.4702 8.77899 55.1702 14.7044 46.4099 16.5091Z" transform="matrix(1 0 0 -1 606.5 333.204)"/><path d="M606.573 333.175 655.237 344.046 655.091 344.697 606.427 333.825ZM654.735 340.177 661.67 345.825 652.991 347.985Z"/><path d="M606.694 333.229 656.436 368.712 656.049 369.255 606.306 333.771ZM657.48 364.953 661.67 372.855 652.835 371.465Z"/><rect x="895.5" y="299.5" width="129" height="68" stroke="#000000" stroke-linejoin="round" stroke-miterlimit="10" fill="none"/><text font-family="Calibri,Calibri_MSFontService,sans-serif" font-weight="400" font-size="24" transform="translate(904.971 326)">bank grade<tspan font-size="24" x="34.5867" y="29">G+1</tspan></text><rect x="895.5" y="433.5" width="129" height="68" stroke="#000000" stroke-linejoin="round" stroke-miterlimit="10" fill="none"/><text font-family="Calibri,Calibri_MSFontService,sans-serif" font-weight="400" font-size="24" transform="translate(904.971 460)">bank grade<tspan font-size="24" x="46.6667" y="29">G</tspan><tspan font-size="24" x="-494.864" y="-267">TEST 1</tspan></text><path d="M0.193988-0.271071 49.9427 35.3309 49.5548 35.8731-0.193988 0.271071ZM50.9923 31.5732 55.1702 39.4818 46.3366 38.0789Z" transform="matrix(1 0 0 -1 606.5 466.982)"/><path d="M0.0733894-0.325154 48.7405 10.6593 48.5937 11.3097-0.0733894 0.325154ZM48.2472 6.78909 55.1702 12.4523 46.4858 14.5928Z" transform="matrix(1 0 0 -1 606.5 466.952)"/><path d="M606.585 466.178 655.31 479.052 655.14 479.697 606.415 466.822ZM654.958 475.166 661.67 481.077 652.914 482.901Z"/><path d="M606.701 466.234 656.548 503.827 656.147 504.359 606.299 466.766ZM657.691 500.096 661.67 508.107 652.875 506.484Z"/><path d="M0.184082-0.277894 49.7964 32.5862 49.4282 33.142-0.184082 0.277894ZM50.7097 28.793 55.1702 36.5457 46.2917 35.4625Z" transform="matrix(1 0 0 -1 606.5 600.046)"/><path d="M0.0566595-0.328483 48.6572 8.05456 48.5439 8.71152-0.0566595 0.328483ZM47.9665 4.2146 55.1702 9.51622 46.6067 12.0982Z" transform="matrix(1 0 0 -1 606.5 600.016)"/><path d="M606.601 599.182 655.417 614.679 655.215 615.314 606.399 599.818ZM655.255 610.78 661.67 617.013 652.835 618.405Z"/><path d="M606.709 599.241 656.693 639.596 656.274 640.114 606.291 599.759ZM657.958 635.905 661.67 644.043 652.933 642.13Z"/><text font-family="Calibri,Calibri_MSFontService,sans-serif" font-weight="400" font-size="24" transform="translate(1170.05 194)">TEST 2</text><path d="M775.54 318.169 889.039 332.003 888.958 332.665 775.46 318.831ZM888.159 328.202 895.616 333.141 887.191 336.144Z"/><path d="M0.0341982-0.331574 113.519 11.3731 113.451 12.0363-0.0341982 0.331574ZM112.569 7.58901 120.116 12.3887 111.748 15.5468Z" transform="matrix(1 0 0 -1 775.5 345.889)"/><path d="M775.706 372.238 890.577 462.37 890.166 462.895 775.294 372.762ZM891.792 458.663 895.616 466.748 886.853 464.957Z"/><path d="M775.605 427.184 889.395 465.005 889.185 465.638 775.395 427.816ZM889.286 461.105 895.616 467.424 886.763 468.697Z"/><path d="M775.536 454.169 889.024 466.352 888.952 467.014 775.464 454.831ZM888.089 462.564 895.616 467.395 887.235 470.518Z"/><path d="M0.0389571-0.331049 113.534 13.0248 113.456 13.6869-0.0389571 0.331049ZM112.639 9.22746 120.116 14.135 111.704 17.1726Z" transform="matrix(1 0 0 -1 775.5 481.635)"/><path d="M0.108065-0.31533 113.918 38.688 113.702 39.3187-0.108065 0.31533ZM113.845 34.7871 120.116 41.1646 111.252 42.355Z" fill="#FF0000" transform="matrix(1 0 0 -1 775.5 508.665)"/><path d="M0.208337-0.260206 115.121 91.7456 114.704 92.266-0.208337 0.260206ZM116.372 88.05 120.116 96.1726 111.371 94.295Z" fill="#FF0000" transform="matrix(1 0 0 -1 775.5 563.673)"/><path d="M0.238672-0.232694 115.701 118.196 115.224 118.661-0.238672 0.232694ZM117.396 114.682 120.116 123.202 111.668 120.266Z" fill="#FF0000" transform="matrix(1 0 0 -1 775.5 590.702)"/><path d="M0.260348-0.208159 116.214 144.817 115.693 145.233-0.260348 0.208159ZM118.245 141.485 120.116 150.232 111.996 146.481Z" fill="#FF0000" transform="matrix(1 0 0 -1 775.5 617.732)"/><text font-family="Cambria Math,Cambria Math_MSFontService,sans-serif" font-weight="400" font-size="24" transform="translate(589.677 421)">ğœƒ<tspan font-size="18" x="12.1" y="5">1</tspan><tspan font-size="18" x="22.2667" y="5">+</tspan><tspan font-size="18" x="34.9333" y="5">2</tspan><tspan font-size="24" x="15.0609" y="-133">ğœƒ</tspan><tspan font-size="18" x="27.7142" y="-128">2</tspan><tspan font-size="24" x="16.3666" y="133">ğœƒ</tspan><tspan font-size="18" x="29.02" y="138">2</tspan><tspan font-size="24" x="-378.583" y="0">ğœƒ</tspan><tspan font-size="18" x="-366.483" y="5">1</tspan><tspan font-family="Calibri,Calibri_MSFontService,sans-serif" font-size="24" x="417.563" y="-182">Phase 1</tspan></text><path d="M775.609 291.185 889.427 330.67 889.209 331.3 775.391 291.815ZM889.369 326.769 895.616 333.17 886.747 334.327Z" fill="#FF0000"/><path d="M54 205.167 830.256 205.167 830.256 206.833 54 206.833ZM54 210C51.7909 210 50 208.209 50 206 50 203.791 51.7909 202 54 202 56.2091 202 58 203.791 58 206 58 208.209 56.2091 210 54 210ZM830.256 202C832.465 202 834.256 203.791 834.256 206 834.256 208.209 832.465 210 830.256 210 828.047 210 826.256 208.209 826.256 206 826.256 203.791 828.047 202 830.256 202Z"/><path d="M854 205.167 1236.57 205.167 1236.57 206.833 854 206.833ZM854 210C851.791 210 850 208.209 850 206 850 203.791 851.791 202 854 202 856.209 202 858 203.791 858 206 858 208.209 856.209 210 854 210Z"/><rect x="661.5" y="281.5" width="114" height="21" stroke="#000000" stroke-width="1.33333" stroke-miterlimit="8" fill="none"/><text font-family="Calibri,Calibri_MSFontService,sans-serif" font-weight="400" font-size="24" transform="translate(699.271 299)">Adv</text><rect x="661.5" y="308.5" width="114" height="21" stroke="#000000" stroke-width="1.33333" stroke-miterlimit="8" fill="none"/><text font-family="Calibri,Calibri_MSFontService,sans-serif" font-weight="400" font-size="24" transform="translate(697.798 326)">Prof</text><rect x="661.5" y="335.5" width="114" height="21" stroke="#000000" stroke-width="1.33333" stroke-miterlimit="8" fill="none"/><text font-family="Calibri,Calibri_MSFontService,sans-serif" font-weight="400" font-size="24" transform="translate(699.164 353)">Dev</text><rect x="661.5" y="362.5" width="114" height="21" stroke="#000000" stroke-width="1.33333" stroke-miterlimit="8" fill="none"/><text font-family="Calibri,Calibri_MSFontService,sans-serif" font-weight="400" font-size="24" transform="translate(699.771 380)">Beg</text><rect x="661.5" y="416.5" width="114" height="21" stroke="#000000" stroke-width="1.33333" stroke-miterlimit="8" fill="none"/><text font-family="Calibri,Calibri_MSFontService,sans-serif" font-weight="400" font-size="24" transform="translate(699.271 434)">Adv</text><rect x="661.5" y="443.5" width="114" height="21" stroke="#000000" stroke-width="1.33333" stroke-miterlimit="8" fill="none"/><text font-family="Calibri,Calibri_MSFontService,sans-serif" font-weight="400" font-size="24" transform="translate(697.798 461)">Prof</text><rect x="661.5" y="470.5" width="114" height="21" stroke="#000000" stroke-width="1.33333" stroke-miterlimit="8" fill="none"/><text font-family="Calibri,Calibri_MSFontService,sans-serif" font-weight="400" font-size="24" transform="translate(699.164 488)">Dev</text><rect x="661.5" y="497.5" width="114" height="21" stroke="#000000" stroke-width="1.33333" stroke-miterlimit="8" fill="none"/><text font-family="Calibri,Calibri_MSFontService,sans-serif" font-weight="400" font-size="24" transform="translate(699.771 515)">Beg</text><rect x="661.5" y="552.5" width="114" height="21" stroke="#000000" stroke-width="1.33333" stroke-miterlimit="8" fill="none"/><text font-family="Calibri,Calibri_MSFontService,sans-serif" font-weight="400" font-size="24" transform="translate(699.271 570)">Adv</text><rect x="661.5" y="579.5" width="114" height="21" stroke="#000000" stroke-width="1.33333" stroke-miterlimit="8" fill="none"/><text font-family="Calibri,Calibri_MSFontService,sans-serif" font-weight="400" font-size="24" transform="translate(697.798 597)">Prof</text><rect x="661.5" y="606.5" width="114" height="21" stroke="#000000" stroke-width="1.33333" stroke-miterlimit="8" fill="none"/><text font-family="Calibri,Calibri_MSFontService,sans-serif" font-weight="400" font-size="24" transform="translate(699.164 624)">Dev</text><rect x="661.5" y="634.5" width="114" height="20" stroke="#000000" stroke-width="1.33333" stroke-miterlimit="8" fill="none"/><text font-family="Calibri,Calibri_MSFontService,sans-serif" font-weight="400" font-size="24" transform="translate(699.771 652)">Beg</text><path d="M0.275947-0.186988 116.653 171.555 116.101 171.929-0.275947 0.186988ZM118.94 168.395 120.116 177.261 112.317 172.882Z" fill="#FF0000" transform="matrix(1 0 0 -1 775.5 644.761)"/><text fill="#FF0000" font-family="Calibri,Calibri_MSFontService,sans-serif" font-weight="700" font-size="16" transform="translate(863.484 572)">(R1)<tspan font-size="16" x="-113.408" y="-299">(R3)</tspan><tspan font-size="16" x="-114.424" y="-38">(R2)</tspan></text></g></svg>